<svg width="51" height="50" viewBox="0 0 51 50" fill="none" xmlns="http://www.w3.org/2000/svg">
<path d="M25.1353 25.9353C24.0958 24.2593 23.3416 22.8697 22.2968 20.253C20.5301 15.8332 33.0416 11.8395 27.9687 4.16553C30.1676 9.46657 20.076 12.7437 19.1385 17.1582C18.2812 21.2187 25.1301 25.9353 25.1353 25.9353Z" fill="#F44336"/>
<path d="M25.3729 17.9895C25.1729 20.6103 27.6947 22.0072 27.7677 23.9218C27.826 25.4801 26.2604 26.7791 26.2604 26.7791C26.2604 26.7791 29.102 26.2207 29.9885 23.8437C30.9729 21.2041 28.0781 19.3968 28.376 17.2832C28.6541 15.2645 34.6583 11.5093 34.6583 11.5093C34.6583 11.5093 25.8239 12.0947 25.3729 17.9895Z" fill="#F44336"/>
<path d="M33.9207 26.099C35.7478 25.6886 37.2884 26.8522 37.2884 28.1928C37.2884 31.2147 33.0999 34.0709 33.0999 34.0709C33.0999 34.0709 39.5843 33.298 39.5843 28.3365C39.5843 25.0553 36.3999 24.2355 33.9207 26.099ZM30.8426 28.5365C30.8426 28.5365 32.8645 27.0959 33.403 26.5553C28.4416 27.6084 17.1134 27.7501 17.1134 26.8355C17.1134 25.9928 20.7666 25.1293 20.7666 25.1293C20.7666 25.1293 12.6697 25.0126 12.6697 27.4011C12.6697 29.8907 23.2686 30.0688 30.8426 28.5365Z" fill="#1565C0"/>
<path d="M29.5989 30.8032C24.902 32.3646 16.251 31.8657 18.8135 29.7688C17.5656 29.7688 15.7156 30.7719 15.7156 31.7365C15.7156 33.6709 25.0718 35.1646 31.9968 32.3323L29.5989 30.8032Z" fill="#1565C0"/>
<path d="M19.9645 34.1033C18.2604 34.1033 17.1572 35.2012 17.1572 36.0012C17.1572 38.4918 27.3239 38.7429 31.352 36.2147L28.7916 34.5147C25.7822 35.8376 18.2229 36.0199 19.9645 34.1033Z" fill="#1565C0"/>
<path d="M38.2927 38.1585C38.2927 37.1835 37.1937 36.7241 36.8 36.5043C39.1208 42.1012 13.5531 41.6668 13.5531 38.3626C13.5531 37.6116 15.4354 36.8762 17.175 37.2241L15.6958 36.3501C12.2292 35.8064 9.875 37.3304 9.875 38.5595C9.875 44.2918 38.2927 44.0158 38.2927 38.1585Z" fill="#1565C0"/>
<path d="M41.1251 40.2126C36.8063 44.4783 25.8553 46.0324 14.8428 43.397C25.8553 48.0876 41.073 45.446 41.1251 40.2126Z" fill="#1565C0"/>
</svg>
