<svg width="51" height="50" viewBox="0 0 51 50" fill="none" xmlns="http://www.w3.org/2000/svg">
<path d="M6.75 43.75V6.25H44.25V43.75H6.75Z" fill="#FFD600"/>
<path d="M31.2688 34.3199C31.9896 35.4907 32.773 36.6126 34.4323 36.6126C35.8261 36.6126 36.5573 35.9199 36.5573 34.9615C36.5573 33.8147 35.8011 33.4074 34.2678 32.7397L33.4271 32.3813C31.0011 31.3522 29.3875 30.0626 29.3875 27.3386C29.3875 24.8282 31.3094 22.9178 34.3125 22.9178C36.4511 22.9178 37.9875 23.6584 39.0959 25.598L36.4771 27.272C35.9011 26.2428 35.2782 25.8376 34.3125 25.8376C33.3271 25.8376 32.7032 26.4595 32.7032 27.272C32.7032 28.2761 33.3282 28.6824 34.7709 29.3042L35.6115 29.6626C38.4709 30.8803 40.0834 32.124 40.0834 34.9199C40.0834 37.9324 37.7042 39.5834 34.5105 39.5834C31.3865 39.5834 29.6125 38.0157 28.625 36.0751L31.2688 34.3199ZM19.2 34.4053C19.7271 35.349 20.5282 36.0751 21.6803 36.0751C22.7823 36.0751 23.4167 35.6397 23.4167 33.947V22.9167H26.8886V34.4803C26.8886 37.9876 24.8542 39.5834 21.8834 39.5834C19.199 39.5834 17.2615 37.7647 16.4719 36.0751L19.2 34.4053Z" fill="#000001"/>
</svg>
