<svg width="24" height="23" viewBox="0 0 24 23" fill="none" xmlns="http://www.w3.org/2000/svg">
<path d="M8.19294 18.2144C8.19294 18.3053 8.08629 18.3781 7.95181 18.3781C7.79879 18.3918 7.69214 18.319 7.69214 18.2144C7.69214 18.1234 7.79879 18.0506 7.93327 18.0506C8.07238 18.037 8.19294 18.1097 8.19294 18.2144ZM6.75081 18.0097C6.71835 18.1006 6.81109 18.2053 6.9502 18.2326C7.07077 18.2781 7.20988 18.2326 7.2377 18.1416C7.26552 18.0506 7.17742 17.946 7.03831 17.905C6.91774 17.8732 6.78327 17.9187 6.75081 18.0097ZM8.8004 17.9323C8.66593 17.9642 8.57318 18.0506 8.5871 18.1552C8.60101 18.2462 8.72157 18.3054 8.86069 18.2735C8.99516 18.2417 9.0879 18.1552 9.07399 18.0642C9.06008 17.9778 8.93488 17.9187 8.8004 17.9323ZM11.8516 0.5C5.41996 0.5 0.5 5.29025 0.5 11.5999C0.5 16.6449 3.73669 20.9621 8.35988 22.4815C8.95343 22.5861 9.1621 22.2267 9.1621 21.931C9.1621 21.649 9.14819 20.0932 9.14819 19.1378C9.14819 19.1378 5.90222 19.8202 5.22056 17.7822C5.22056 17.7822 4.69194 16.4584 3.93145 16.1172C3.93145 16.1172 2.86956 15.403 4.00565 15.4166C4.00565 15.4166 5.16028 15.5076 5.79556 16.5903C6.81109 18.3463 8.5129 17.8413 9.17601 17.5411C9.28266 16.8132 9.58407 16.3083 9.91794 16.008C7.32581 15.726 4.71048 15.3575 4.71048 10.9812C4.71048 9.73021 5.0629 9.10243 5.80484 8.30178C5.68427 8.00609 5.29012 6.78692 5.9254 5.21291C6.89456 4.91722 9.125 6.44118 9.125 6.44118C10.0524 6.18643 11.0494 6.05451 12.0371 6.05451C13.0248 6.05451 14.0218 6.18643 14.9492 6.44118C14.9492 6.44118 17.1796 4.91267 18.1488 5.21291C18.7841 6.79147 18.3899 8.00609 18.2694 8.30178C19.0113 9.10698 19.4657 9.73476 19.4657 10.9812C19.4657 15.3712 16.7345 15.7214 14.1423 16.008C14.569 16.3674 14.9306 17.0498 14.9306 18.1188C14.9306 19.6519 14.9167 21.5489 14.9167 21.9219C14.9167 22.2176 15.13 22.577 15.719 22.4724C20.356 20.9621 23.5 16.6449 23.5 11.5999C23.5 5.29025 18.2833 0.5 11.8516 0.5ZM5.00726 16.19C4.94698 16.2355 4.96089 16.3401 5.03972 16.4266C5.11391 16.4993 5.22056 16.5312 5.28085 16.472C5.34113 16.4266 5.32722 16.3219 5.24839 16.2355C5.17419 16.1627 5.06754 16.1309 5.00726 16.19ZM4.50645 15.8215C4.47399 15.8807 4.52036 15.9534 4.6131 15.9989C4.6873 16.0444 4.78004 16.0308 4.8125 15.9671C4.84496 15.908 4.79859 15.8352 4.70585 15.7897C4.6131 15.7624 4.53891 15.776 4.50645 15.8215ZM6.00887 17.441C5.93468 17.5002 5.9625 17.6366 6.06915 17.7231C6.17581 17.8277 6.31028 17.8413 6.37056 17.7686C6.43085 17.7094 6.40302 17.5729 6.31028 17.4865C6.20827 17.3819 6.06915 17.3682 6.00887 17.441ZM5.48024 16.7723C5.40605 16.8178 5.40605 16.9361 5.48024 17.0407C5.55444 17.1453 5.67964 17.1908 5.73992 17.1453C5.81411 17.0862 5.81411 16.9679 5.73992 16.8633C5.675 16.7586 5.55444 16.7132 5.48024 16.7723Z" fill="#220070"/>
</svg>
