<svg width="20" height="21" viewBox="0 0 20 21" fill="none" xmlns="http://www.w3.org/2000/svg">
<path d="M17.619 0.5H2.38095C1.06667 0.5 0 1.56667 0 2.88095V18.119C0 19.4333 1.06667 20.5 2.38095 20.5H17.619C18.9333 20.5 20 19.4333 20 18.119V2.88095C20 1.56667 18.9333 0.5 17.619 0.5ZM6.19048 8.11905V17.1667H3.33333V8.11905H6.19048ZM3.33333 5.48571C3.33333 4.81905 3.90476 4.30952 4.7619 4.30952C5.61905 4.30952 6.15714 4.81905 6.19048 5.48571C6.19048 6.15238 5.65714 6.69048 4.7619 6.69048C3.90476 6.69048 3.33333 6.15238 3.33333 5.48571ZM16.6667 17.1667H13.8095C13.8095 17.1667 13.8095 12.7571 13.8095 12.4048C13.8095 11.4524 13.3333 10.5 12.1429 10.481H12.1048C10.9524 10.481 10.4762 11.4619 10.4762 12.4048C10.4762 12.8381 10.4762 17.1667 10.4762 17.1667H7.61905V8.11905H10.4762V9.3381C10.4762 9.3381 11.3952 8.11905 13.2429 8.11905C15.1333 8.11905 16.6667 9.41905 16.6667 12.0524V17.1667Z" fill="#220070"/>
</svg>
