<svg width="30" height="31" viewBox="0 0 30 31" fill="none" xmlns="http://www.w3.org/2000/svg">
<rect y="0.5" width="30" height="30" rx="15" fill="#B18FFF"/>
<path d="M22.619 5.5H7.38095C6.06667 5.5 5 6.56667 5 7.88095V23.119C5 24.4333 6.06667 25.5 7.38095 25.5H22.619C23.9333 25.5 25 24.4333 25 23.119V7.88095C25 6.56667 23.9333 5.5 22.619 5.5ZM11.1905 13.119V22.1667H8.33333V13.119H11.1905ZM8.33333 10.4857C8.33333 9.81905 8.90476 9.30952 9.7619 9.30952C10.619 9.30952 11.1571 9.81905 11.1905 10.4857C11.1905 11.1524 10.6571 11.6905 9.7619 11.6905C8.90476 11.6905 8.33333 11.1524 8.33333 10.4857ZM21.6667 22.1667H18.8095C18.8095 22.1667 18.8095 17.7571 18.8095 17.4048C18.8095 16.4524 18.3333 15.5 17.1429 15.481H17.1048C15.9524 15.481 15.4762 16.4619 15.4762 17.4048C15.4762 17.8381 15.4762 22.1667 15.4762 22.1667H12.619V13.119H15.4762V14.3381C15.4762 14.3381 16.3952 13.119 18.2429 13.119C20.1333 13.119 21.6667 14.419 21.6667 17.0524V22.1667Z" fill="#220070"/>
</svg>
