<svg width="51" height="50" viewBox="0 0 51 50" fill="none" xmlns="http://www.w3.org/2000/svg">
<path fill-rule="evenodd" clip-rule="evenodd" d="M24.3572 3.4229C25.0645 3.02603 25.9353 3.02603 26.6416 3.4229C30.1364 5.38436 40.653 11.2885 44.1489 13.25C44.8562 13.6458 45.2916 14.3792 45.2916 15.1729C45.2916 19.0958 45.2916 30.9031 45.2916 34.826C45.2916 35.6198 44.8562 36.3531 44.1489 36.75C40.6541 38.7114 30.1374 44.6156 26.6416 46.5771C25.9343 46.9739 25.0635 46.9739 24.3572 46.5771C20.8624 44.6156 10.3458 38.7114 6.84992 36.75C6.14367 36.3531 5.70825 35.6208 5.70825 34.8271C5.70825 30.9041 5.70825 19.0969 5.70825 15.1739C5.70825 14.3802 6.14367 13.6469 6.85096 13.25C10.3447 11.2885 20.8635 5.38436 24.3572 3.4229Z" fill="#220070"/>
<path fill-rule="evenodd" clip-rule="evenodd" d="M6.02492 35.8375C5.74784 35.4667 5.70825 35.1146 5.70825 34.6407C5.70825 30.7407 5.70825 19.0011 5.70825 15.1C5.70825 14.3105 6.14263 13.5813 6.84784 13.1875C10.3301 11.2375 20.8114 5.36776 24.2937 3.41672C24.9989 3.02192 25.9541 3.03026 26.6593 3.42505C30.1416 5.37505 40.5874 11.1948 44.0697 13.1448C44.351 13.3032 44.5655 13.4938 44.7572 13.7448L6.02492 35.8375Z" fill="#4A00F5"/>
<path fill-rule="evenodd" clip-rule="evenodd" d="M25.5001 10.4167C33.549 10.4167 40.0834 16.9511 40.0834 25.0001C40.0834 33.049 33.549 39.5834 25.5001 39.5834C17.4511 39.5834 10.9167 33.049 10.9167 25.0001C10.9167 16.9511 17.4511 10.4167 25.5001 10.4167ZM25.5001 17.7084C29.524 17.7084 32.7917 20.9751 32.7917 25.0001C32.7917 29.024 29.524 32.2917 25.5001 32.2917C21.4761 32.2917 18.2084 29.024 18.2084 25.0001C18.2084 20.9751 21.4751 17.7084 25.5001 17.7084Z" fill="white"/>
<path fill-rule="evenodd" clip-rule="evenodd" d="M44.7551 13.7551C45.2926 14.2583 45.2822 15.0166 45.2822 15.6135C45.2822 19.5666 45.2488 30.8103 45.2916 34.7635C45.2957 35.176 45.1593 35.6103 44.9551 35.9374L25.0759 24.9999L44.7551 13.7551Z" fill="#2F0099"/>
<path fill-rule="evenodd" clip-rule="evenodd" d="M35.9167 20.8333H36.9584V29.1666H35.9167V20.8333ZM39.0417 20.8333H40.0834V29.1666H39.0417V20.8333Z" fill="white"/>
<path fill-rule="evenodd" clip-rule="evenodd" d="M33.8333 26.0417H42.1666V27.0834H33.8333V26.0417ZM33.8333 22.9167H42.1666V23.9584H33.8333V22.9167Z" fill="white"/>
</svg>
