<svg width="51" height="78" viewBox="0 0 51 78" fill="none" xmlns="http://www.w3.org/2000/svg">
<path fill-rule="evenodd" clip-rule="evenodd" d="M24.3573 3.4229C25.0646 3.02603 25.9354 3.02603 26.6417 3.4229C30.1365 5.38436 40.6531 11.2885 44.149 13.25C44.8563 13.6458 45.2917 14.3792 45.2917 15.1729C45.2917 19.0958 45.2917 30.9031 45.2917 34.826C45.2917 35.6198 44.8563 36.3531 44.149 36.75C40.6542 38.7114 30.1375 44.6156 26.6417 46.5771C25.9344 46.9739 25.0636 46.9739 24.3573 46.5771C20.8625 44.6156 10.3458 38.7114 6.85001 36.75C6.14376 36.3531 5.70834 35.6208 5.70834 34.8271C5.70834 30.9041 5.70834 19.0969 5.70834 15.1739C5.70834 14.3802 6.14376 13.6469 6.85105 13.25C10.3448 11.2885 20.8636 5.38436 24.3573 3.4229Z" fill="#220070"/>
<path fill-rule="evenodd" clip-rule="evenodd" d="M6.02501 35.8375C5.74793 35.4667 5.70834 35.1146 5.70834 34.6407C5.70834 30.7407 5.70834 19.0011 5.70834 15.1C5.70834 14.3105 6.14272 13.5813 6.84793 13.1875C10.3302 11.2375 20.8115 5.36776 24.2938 3.41672C24.999 3.02192 25.9542 3.03026 26.6594 3.42505C30.1417 5.37505 40.5875 11.1948 44.0698 13.1448C44.3511 13.3032 44.5656 13.4938 44.7573 13.7448L6.02501 35.8375Z" fill="#4A00F5"/>
<path fill-rule="evenodd" clip-rule="evenodd" d="M25.5 10.4167C33.549 10.4167 40.0834 16.9511 40.0834 25.0001C40.0834 33.049 33.549 39.5834 25.5 39.5834C17.4511 39.5834 10.9167 33.049 10.9167 25.0001C10.9167 16.9511 17.4511 10.4167 25.5 10.4167ZM25.5 17.7084C29.524 17.7084 32.7917 20.9751 32.7917 25.0001C32.7917 29.024 29.524 32.2917 25.5 32.2917C21.4761 32.2917 18.2084 29.024 18.2084 25.0001C18.2084 20.9751 21.475 17.7084 25.5 17.7084Z" fill="white"/>
<path fill-rule="evenodd" clip-rule="evenodd" d="M44.7552 13.7551C45.2927 14.2583 45.2823 15.0166 45.2823 15.6135C45.2823 19.5666 45.249 30.8103 45.2917 34.7635C45.2958 35.176 45.1594 35.6103 44.9552 35.9374L25.076 24.9999L44.7552 13.7551Z" fill="#2F0099"/>
<path fill-rule="evenodd" clip-rule="evenodd" d="M35.9167 20.8333H36.9584V29.1666H35.9167V20.8333ZM39.0417 20.8333H40.0834V29.1666H39.0417V20.8333Z" fill="white"/>
<path fill-rule="evenodd" clip-rule="evenodd" d="M33.8333 26.0417H42.1666V27.0834H33.8333V26.0417ZM33.8333 22.9167H42.1666V23.9584H33.8333V22.9167Z" fill="white"/>
<path d="M14.4099 67.1C14.4099 66.1387 14.6246 65.28 15.0539 64.524C15.4926 63.7587 16.0853 63.166 16.8319 62.746C17.5879 62.3167 18.4326 62.102 19.3659 62.102C20.4579 62.102 21.4146 62.382 22.2359 62.942C23.0573 63.502 23.6313 64.2767 23.9579 65.266H21.7039C21.4799 64.7993 21.1626 64.4493 20.7519 64.216C20.3506 63.9827 19.8839 63.866 19.3519 63.866C18.7826 63.866 18.2739 64.0013 17.8259 64.272C17.3873 64.5333 17.0419 64.9067 16.7899 65.392C16.5473 65.8773 16.4259 66.4467 16.4259 67.1C16.4259 67.744 16.5473 68.3133 16.7899 68.808C17.0419 69.2933 17.3873 69.6713 17.8259 69.942C18.2739 70.2033 18.7826 70.334 19.3519 70.334C19.8839 70.334 20.3506 70.2173 20.7519 69.984C21.1626 69.7413 21.4799 69.3867 21.7039 68.92H23.9579C23.6313 69.9187 23.0573 70.698 22.2359 71.258C21.4239 71.8087 20.4673 72.084 19.3659 72.084C18.4326 72.084 17.5879 71.874 16.8319 71.454C16.0853 71.0247 15.4926 70.432 15.0539 69.676C14.6246 68.92 14.4099 68.0613 14.4099 67.1ZM34.242 65.714L33.78 67.87H35.558V69.62H33.402L32.898 72H31.036L31.54 69.62H28.992L28.488 72H26.64L27.144 69.62H25.03V67.87H27.522L27.984 65.714H25.884V63.964H28.362L28.852 61.64H30.7L30.21 63.964H32.758L33.248 61.64H35.11L34.62 63.964H36.412V65.714H34.242ZM32.38 65.714H29.832L29.37 67.87H31.918L32.38 65.714Z" fill="white"/>
</svg>
