<svg width="51" height="50" viewBox="0 0 51 50" fill="none" xmlns="http://www.w3.org/2000/svg">
<path d="M43.2084 5.20825H7.79175L10.9167 40.6249L25.5001 44.7916L40.0834 40.6249L43.2084 5.20825Z" fill="#0277BD"/>
<path d="M25.5 8.33325V41.5624L37.1667 38.2291L39.7708 8.33325H25.5Z" fill="#039BE5"/>
<path d="M34.9792 13.5417H25.5V17.7084H30.6042L30.2917 21.8751H25.5V26.0417H30.0833L29.7708 30.7292L25.5 32.1876V36.5626L33.7292 33.8542L34.4583 21.8751L34.9792 13.5417Z" fill="white"/>
<path d="M25.5001 13.5417V17.7084H16.2292L15.9167 13.5417H25.5001ZM20.7084 21.8751L20.9167 26.0417H25.5001V21.8751H20.7084ZM21.1251 28.1251H16.9584L17.2709 33.8542L25.5001 36.5626V32.1876L21.2292 30.7292L21.1251 28.1251Z" fill="#EEEEEE"/>
</svg>
