<svg width="51" height="78" viewBox="0 0 51 78" fill="none" xmlns="http://www.w3.org/2000/svg">
<path d="M43.2084 5.20825H7.79169L10.9167 40.6249L25.5 44.7916L40.0834 40.6249L43.2084 5.20825Z" fill="#0277BD"/>
<path d="M25.5 8.33325V41.5624L37.1667 38.2291L39.7708 8.33325H25.5Z" fill="#039BE5"/>
<path d="M34.9792 13.5417H25.5V17.7084H30.6042L30.2917 21.8751H25.5V26.0417H30.0833L29.7708 30.7292L25.5 32.1876V36.5626L33.7292 33.8542L34.4583 21.8751L34.9792 13.5417Z" fill="white"/>
<path d="M25.5 13.5417V17.7084H16.2292L15.9167 13.5417H25.5ZM20.7084 21.8751L20.9167 26.0417H25.5V21.8751H20.7084ZM21.125 28.1251H16.9584L17.2709 33.8542L25.5 36.5626V32.1876L21.2292 30.7292L21.125 28.1251Z" fill="#EEEEEE"/>
<path d="M14.1222 68.122C14.1222 67.3193 14.2855 66.6193 14.6122 66.022C14.9388 65.4153 15.3915 64.9487 15.9702 64.622C16.5488 64.286 17.2115 64.118 17.9582 64.118C18.9195 64.118 19.7128 64.3607 20.3382 64.846C20.9728 65.322 21.3975 65.994 21.6122 66.862H19.4982C19.3862 66.526 19.1948 66.2647 18.9242 66.078C18.6628 65.882 18.3362 65.784 17.9442 65.784C17.3842 65.784 16.9408 65.9893 16.6142 66.4C16.2875 66.8013 16.1242 67.3753 16.1242 68.122C16.1242 68.8593 16.2875 69.4333 16.6142 69.844C16.9408 70.2453 17.3842 70.446 17.9442 70.446C18.7375 70.446 19.2555 70.0913 19.4982 69.382H21.6122C21.3975 70.222 20.9728 70.8893 20.3382 71.384C19.7035 71.8787 18.9102 72.126 17.9582 72.126C17.2115 72.126 16.5488 71.9627 15.9702 71.636C15.3915 71.3 14.9388 70.8333 14.6122 70.236C14.2855 69.6293 14.1222 68.9247 14.1222 68.122ZM26.016 72.126C25.3814 72.126 24.812 72.014 24.308 71.79C23.804 71.5567 23.4027 71.244 23.104 70.852C22.8147 70.46 22.656 70.026 22.628 69.55H24.602C24.6394 69.8487 24.784 70.096 25.036 70.292C25.2974 70.488 25.6194 70.586 26.002 70.586C26.3754 70.586 26.6647 70.5113 26.87 70.362C27.0847 70.2127 27.192 70.0213 27.192 69.788C27.192 69.536 27.0614 69.3493 26.8 69.228C26.548 69.0973 26.142 68.9573 25.582 68.808C25.0034 68.668 24.5274 68.5233 24.154 68.374C23.79 68.2247 23.4727 67.996 23.202 67.688C22.9407 67.38 22.81 66.9647 22.81 66.442C22.81 66.0127 22.9314 65.6207 23.174 65.266C23.426 64.9113 23.7807 64.6313 24.238 64.426C24.7047 64.2207 25.2507 64.118 25.876 64.118C26.8 64.118 27.5374 64.3513 28.088 64.818C28.6387 65.2753 28.942 65.896 28.998 66.68H27.122C27.094 66.372 26.9634 66.1293 26.73 65.952C26.506 65.7653 26.2027 65.672 25.82 65.672C25.4654 65.672 25.19 65.7373 24.994 65.868C24.8074 65.9987 24.714 66.1807 24.714 66.414C24.714 66.6753 24.8447 66.876 25.106 67.016C25.3674 67.1467 25.7734 67.282 26.324 67.422C26.884 67.562 27.346 67.7067 27.71 67.856C28.074 68.0053 28.3867 68.2387 28.648 68.556C28.9187 68.864 29.0587 69.2747 29.068 69.788C29.068 70.236 28.942 70.6373 28.69 70.992C28.4474 71.3467 28.0927 71.6267 27.626 71.832C27.1687 72.028 26.632 72.126 26.016 72.126ZM33.6449 72.126C33.0103 72.126 32.4409 72.014 31.9369 71.79C31.4329 71.5567 31.0316 71.244 30.7329 70.852C30.4436 70.46 30.2849 70.026 30.2569 69.55H32.2309C32.2683 69.8487 32.4129 70.096 32.6649 70.292C32.9263 70.488 33.2483 70.586 33.6309 70.586C34.0043 70.586 34.2936 70.5113 34.4989 70.362C34.7136 70.2127 34.8209 70.0213 34.8209 69.788C34.8209 69.536 34.6903 69.3493 34.4289 69.228C34.1769 69.0973 33.7709 68.9573 33.2109 68.808C32.6323 68.668 32.1563 68.5233 31.7829 68.374C31.4189 68.2247 31.1016 67.996 30.8309 67.688C30.5696 67.38 30.4389 66.9647 30.4389 66.442C30.4389 66.0127 30.5603 65.6207 30.8029 65.266C31.0549 64.9113 31.4096 64.6313 31.8669 64.426C32.3336 64.2207 32.8796 64.118 33.5049 64.118C34.4289 64.118 35.1663 64.3513 35.7169 64.818C36.2676 65.2753 36.5709 65.896 36.6269 66.68H34.7509C34.7229 66.372 34.5923 66.1293 34.3589 65.952C34.1349 65.7653 33.8316 65.672 33.4489 65.672C33.0943 65.672 32.8189 65.7373 32.6229 65.868C32.4363 65.9987 32.3429 66.1807 32.3429 66.414C32.3429 66.6753 32.4736 66.876 32.7349 67.016C32.9963 67.1467 33.4023 67.282 33.9529 67.422C34.5129 67.562 34.9749 67.7067 35.3389 67.856C35.7029 68.0053 36.0156 68.2387 36.2769 68.556C36.5476 68.864 36.6876 69.2747 36.6969 69.788C36.6969 70.236 36.5709 70.6373 36.3189 70.992C36.0763 71.3467 35.7216 71.6267 35.2549 71.832C34.7976 72.028 34.2609 72.126 33.6449 72.126Z" fill="white"/>
</svg>
