<svg width="83" height="50" viewBox="0 0 83 50" fill="none" xmlns="http://www.w3.org/2000/svg">
<path d="M66.2195 34.416C66.3155 34.608 66.3635 34.816 66.3635 35.04C66.3635 35.264 66.2515 35.488 66.0275 35.712C65.8355 35.904 65.5955 36 65.3075 36H55.4675C54.4755 36 53.7875 35.568 53.4035 34.704L49.2755 25.536H47.3075V34.704C47.3075 35.056 47.1795 35.36 46.9235 35.616C46.6675 35.872 46.3635 36 46.0115 36H36.6035C36.2515 36 35.9475 35.872 35.6915 35.616C35.4355 35.36 35.3075 35.056 35.3075 34.704V3.696C35.3075 3.344 35.4355 3.04 35.6915 2.784C35.9475 2.528 36.2515 2.4 36.6035 2.4H50.8115C55.4195 2.4 59.0195 3.44 61.6115 5.52C64.2035 7.568 65.4995 10.528 65.4995 14.4C65.4995 18.24 63.7715 21.264 60.3155 23.472L66.2195 34.416ZM47.3075 11.328V16.416H50.8115C51.5155 16.416 52.0595 16.192 52.4435 15.744C52.8275 15.264 53.0195 14.672 53.0195 13.968C53.0195 13.264 52.8275 12.656 52.4435 12.144C52.0915 11.6 51.5475 11.328 50.8115 11.328H47.3075Z" fill="#6A29FF"/>
<path d="M33.7495 37.16H47.0455C47.3975 37.16 47.7015 37.288 47.9575 37.544C48.2135 37.8 48.3415 38.104 48.3415 38.456V45.704C48.3415 46.056 48.2135 46.36 47.9575 46.616C47.7015 46.872 47.3975 47 47.0455 47H22.8535C22.5015 47 22.1975 46.872 21.9415 46.616C21.6855 46.36 21.5575 46.056 21.5575 45.704V14.696C21.5575 14.344 21.6855 14.04 21.9415 13.784C22.1975 13.528 22.5015 13.4 22.8535 13.4H32.4535C32.8055 13.4 33.1095 13.528 33.3655 13.784C33.6215 14.04 33.7495 14.344 33.7495 14.696V37.16Z" fill="#6A29FF"/>
<path d="M81.3613 26.87V28.13C81.3613 28.59 81.0713 29.01 80.4913 29.39L68.4913 37.49C68.3913 37.55 68.2613 37.58 68.1013 37.58C67.9613 37.58 67.8313 37.52 67.7113 37.4C67.5913 37.28 67.5313 37.13 67.5313 36.95V32.09C67.5313 31.85 67.5913 31.64 67.7113 31.46C67.8513 31.26 67.9613 31.13 68.0413 31.07C68.1413 31.01 68.2913 30.92 68.4913 30.8L73.7412 27.5L68.4913 24.23C67.8513 23.85 67.5313 23.41 67.5313 22.91V18.05C67.5313 17.87 67.5913 17.72 67.7113 17.6C67.8313 17.48 67.9613 17.42 68.1013 17.42C68.2613 17.42 68.3913 17.45 68.4913 17.51L80.4913 25.61C81.0713 25.99 81.3613 26.41 81.3613 26.87Z" fill="#8D5CFF"/>
<path d="M5.63125 28.13V26.87C5.63125 26.41 5.92125 25.99 6.50125 25.61L18.5013 17.51C18.6013 17.45 18.7213 17.42 18.8613 17.42C19.0213 17.42 19.1613 17.48 19.2813 17.6C19.4013 17.72 19.4613 17.87 19.4613 18.05V22.91C19.4613 23.41 19.1413 23.85 18.5013 24.23L13.2513 27.5L18.5013 30.8C18.7013 30.92 18.8413 31.01 18.9213 31.07C19.0213 31.13 19.1313 31.26 19.2513 31.46C19.3913 31.64 19.4613 31.85 19.4613 32.09V36.95C19.4613 37.13 19.4013 37.28 19.2813 37.4C19.1613 37.52 19.0213 37.58 18.8613 37.58C18.7213 37.58 18.6013 37.55 18.5013 37.49L6.50125 29.39C5.92125 29.01 5.63125 28.59 5.63125 28.13Z" fill="#8D5CFF"/>
</svg>
