<svg width="51" height="50" viewBox="0 0 51 50" fill="none" xmlns="http://www.w3.org/2000/svg">
<path d="M27.5835 17.7083H19.2502C15.2231 17.7083 11.9585 14.4437 11.9585 10.4167C11.9585 6.38958 15.2231 3.125 19.2502 3.125H27.5835V17.7083Z" fill="#E64A19"/>
<path d="M26.5418 32.2916H19.2502C15.2231 32.2916 11.9585 29.027 11.9585 24.9999C11.9585 20.9728 15.2231 17.7083 19.2502 17.7083H26.5418V32.2916Z" fill="#7C4DFF"/>
<path d="M19.2502 46.8751C15.2231 46.8751 11.9585 43.6105 11.9585 39.5834C11.9585 35.5563 15.2231 32.2917 19.2502 32.2917H26.5418V39.5834C26.5418 43.6105 23.2772 46.8751 19.2502 46.8751Z" fill="#66BB6A"/>
<path d="M33.8332 17.7083H26.5415V3.125H33.8332C37.8603 3.125 41.1248 6.38958 41.1248 10.4167C41.1248 14.4437 37.8603 17.7083 33.8332 17.7083Z" fill="#FF7043"/>
<path d="M33.8332 32.2916C37.8602 32.2916 41.1248 29.027 41.1248 24.9999C41.1248 20.9728 37.8602 17.7083 33.8332 17.7083C29.8061 17.7083 26.5415 20.9728 26.5415 24.9999C26.5415 29.027 29.8061 32.2916 33.8332 32.2916Z" fill="#29B6F6"/>
</svg>
