<svg width="51" height="78" viewBox="0 0 51 78" fill="none" xmlns="http://www.w3.org/2000/svg">
<path d="M27.5834 17.7083H19.25C15.223 17.7083 11.9584 14.4437 11.9584 10.4167C11.9584 6.38958 15.223 3.125 19.25 3.125H27.5834V17.7083Z" fill="#E64A19"/>
<path d="M26.5417 32.2916H19.25C15.223 32.2916 11.9584 29.027 11.9584 24.9999C11.9584 20.9728 15.223 17.7083 19.25 17.7083H26.5417V32.2916Z" fill="#7C4DFF"/>
<path d="M19.25 46.8751C15.223 46.8751 11.9584 43.6105 11.9584 39.5834C11.9584 35.5563 15.223 32.2917 19.25 32.2917H26.5417V39.5834C26.5417 43.6105 23.2771 46.8751 19.25 46.8751Z" fill="#66BB6A"/>
<path d="M33.8333 17.7083H26.5416V3.125H33.8333C37.8604 3.125 41.125 6.38958 41.125 10.4167C41.125 14.4437 37.8604 17.7083 33.8333 17.7083Z" fill="#FF7043"/>
<path d="M33.8333 32.2916C37.8604 32.2916 41.125 29.027 41.125 24.9999C41.125 20.9728 37.8604 17.7083 33.8333 17.7083C29.8062 17.7083 26.5416 20.9728 26.5416 24.9999C26.5416 29.027 29.8062 32.2916 33.8333 32.2916Z" fill="#29B6F6"/>
<path d="M10.0166 62.228V63.81H5.9426V66.316H9.0646V67.87H5.9426V72H3.9826V62.228H10.0166ZM12.4004 63.32C12.0551 63.32 11.7658 63.2127 11.5324 62.998C11.3084 62.774 11.1964 62.4987 11.1964 62.172C11.1964 61.8453 11.3084 61.5747 11.5324 61.36C11.7658 61.136 12.0551 61.024 12.4004 61.024C12.7458 61.024 13.0304 61.136 13.2544 61.36C13.4878 61.5747 13.6044 61.8453 13.6044 62.172C13.6044 62.4987 13.4878 62.774 13.2544 62.998C13.0304 63.2127 12.7458 63.32 12.4004 63.32ZM13.3664 64.244V72H11.4064V64.244H13.3664ZM18.3409 64.118C18.9196 64.118 19.4282 64.2347 19.8669 64.468C20.3056 64.692 20.6509 64.986 20.9029 65.35V64.244H22.8769V72.056C22.8769 72.7747 22.7322 73.414 22.4429 73.974C22.1536 74.5433 21.7196 74.9913 21.1409 75.318C20.5622 75.654 19.8622 75.822 19.0409 75.822C17.9396 75.822 17.0342 75.5653 16.3249 75.052C15.6249 74.5387 15.2282 73.8387 15.1349 72.952H17.0809C17.1836 73.3067 17.4029 73.5867 17.7389 73.792C18.0842 74.0067 18.4996 74.114 18.9849 74.114C19.5542 74.114 20.0162 73.9413 20.3709 73.596C20.7256 73.26 20.9029 72.7467 20.9029 72.056V70.852C20.6509 71.216 20.3009 71.5193 19.8529 71.762C19.4142 72.0047 18.9102 72.126 18.3409 72.126C17.6876 72.126 17.0902 71.958 16.5489 71.622C16.0076 71.286 15.5782 70.8147 15.2609 70.208C14.9529 69.592 14.7989 68.8873 14.7989 68.094C14.7989 67.31 14.9529 66.6147 15.2609 66.008C15.5782 65.4013 16.0029 64.9347 16.5349 64.608C17.0762 64.2813 17.6782 64.118 18.3409 64.118ZM20.9029 68.122C20.9029 67.646 20.8096 67.24 20.6229 66.904C20.4362 66.5587 20.1842 66.2973 19.8669 66.12C19.5496 65.9333 19.2089 65.84 18.8449 65.84C18.4809 65.84 18.1449 65.9287 17.8369 66.106C17.5289 66.2833 17.2769 66.5447 17.0809 66.89C16.8942 67.226 16.8009 67.6273 16.8009 68.094C16.8009 68.5607 16.8942 68.9713 17.0809 69.326C17.2769 69.6713 17.5289 69.9373 17.8369 70.124C18.1542 70.3107 18.4902 70.404 18.8449 70.404C19.2089 70.404 19.5496 70.3153 19.8669 70.138C20.1842 69.9513 20.4362 69.69 20.6229 69.354C20.8096 69.0087 20.9029 68.598 20.9029 68.122ZM34.4232 64.132C35.3752 64.132 36.1405 64.426 36.7192 65.014C37.3072 65.5927 37.6012 66.4047 37.6012 67.45V72H35.6412V67.716C35.6412 67.1093 35.4872 66.6473 35.1792 66.33C34.8712 66.0033 34.4512 65.84 33.9192 65.84C33.3872 65.84 32.9625 66.0033 32.6452 66.33C32.3372 66.6473 32.1832 67.1093 32.1832 67.716V72H30.2232V67.716C30.2232 67.1093 30.0692 66.6473 29.7612 66.33C29.4532 66.0033 29.0332 65.84 28.5012 65.84C27.9599 65.84 27.5305 66.0033 27.2132 66.33C26.9052 66.6473 26.7512 67.1093 26.7512 67.716V72H24.7912V64.244H26.7512V65.182C27.0032 64.8553 27.3252 64.5987 27.7172 64.412C28.1185 64.2253 28.5572 64.132 29.0332 64.132C29.6399 64.132 30.1812 64.2627 30.6572 64.524C31.1332 64.776 31.5019 65.14 31.7632 65.616C32.0152 65.168 32.3792 64.8087 32.8552 64.538C33.3405 64.2673 33.8632 64.132 34.4232 64.132ZM38.9571 68.094C38.9571 67.31 39.1111 66.6147 39.4191 66.008C39.7365 65.4013 40.1611 64.9347 40.6931 64.608C41.2345 64.2813 41.8365 64.118 42.4991 64.118C43.0778 64.118 43.5818 64.2347 44.0111 64.468C44.4498 64.7013 44.7998 64.9953 45.0611 65.35V64.244H47.0351V72H45.0611V70.866C44.8091 71.23 44.4591 71.5333 44.0111 71.776C43.5725 72.0093 43.0638 72.126 42.4851 72.126C41.8318 72.126 41.2345 71.958 40.6931 71.622C40.1611 71.286 39.7365 70.8147 39.4191 70.208C39.1111 69.592 38.9571 68.8873 38.9571 68.094ZM45.0611 68.122C45.0611 67.646 44.9678 67.24 44.7811 66.904C44.5945 66.5587 44.3425 66.2973 44.0251 66.12C43.7078 65.9333 43.3671 65.84 43.0031 65.84C42.6391 65.84 42.3031 65.9287 41.9951 66.106C41.6871 66.2833 41.4351 66.5447 41.2391 66.89C41.0525 67.226 40.9591 67.6273 40.9591 68.094C40.9591 68.5607 41.0525 68.9713 41.2391 69.326C41.4351 69.6713 41.6871 69.9373 41.9951 70.124C42.3125 70.3107 42.6485 70.404 43.0031 70.404C43.3671 70.404 43.7078 70.3153 44.0251 70.138C44.3425 69.9513 44.5945 69.69 44.7811 69.354C44.9678 69.0087 45.0611 68.598 45.0611 68.122Z" fill="white"/>
</svg>
