<svg width="51" height="50" viewBox="0 0 51 50" fill="none" xmlns="http://www.w3.org/2000/svg">
<path d="M44.4583 23.0208L27.4791 6.04159C26.9583 5.52075 26.2291 5.20825 25.4999 5.20825C24.7708 5.20825 24.0416 5.52075 23.5208 6.04159L19.8749 9.68742L24.1458 13.9583C24.5624 13.7499 24.9791 13.6458 25.4999 13.6458C27.2708 13.6458 28.6249 14.9999 28.6249 16.7708C28.6249 17.2916 28.5208 17.7083 28.3124 18.1249L32.4791 22.2916C32.8958 22.0833 33.3124 21.9791 33.8333 21.9791C35.6041 21.9791 36.9583 23.3333 36.9583 25.1041C36.9583 26.8749 35.6041 28.2291 33.8333 28.2291C32.0624 28.2291 30.7083 26.8749 30.7083 25.1041C30.7083 24.5833 30.8124 24.1666 31.0208 23.7499L26.8541 19.5833C26.7499 19.5833 26.6458 19.6874 26.5416 19.6874V30.5208C27.7916 30.9374 28.6249 32.0833 28.6249 33.4374C28.6249 35.2083 27.2708 36.5624 25.4999 36.5624C23.7291 36.5624 22.3749 35.2083 22.3749 33.4374C22.3749 32.0833 23.2083 30.9374 24.4583 30.5208V19.5833C23.2083 19.1666 22.3749 18.0208 22.3749 16.6666C22.3749 16.1458 22.4791 15.7291 22.6874 15.3124L18.4166 11.0416L6.54159 23.0208C6.02075 23.5416 5.70825 24.2708 5.70825 24.9999C5.70825 25.7291 6.02075 26.4583 6.54159 26.9791L23.5208 43.9583C24.0416 44.4791 24.7708 44.7916 25.4999 44.7916C26.2291 44.7916 26.9583 44.4791 27.4791 43.9583L44.4583 26.9791C44.9791 26.4583 45.2916 25.7291 45.2916 24.9999C45.2916 24.2708 44.9791 23.5416 44.4583 23.0208Z" fill="#F4511E"/>
</svg>
