<svg width="30" height="30" viewBox="0 0 30 30" fill="none" xmlns="http://www.w3.org/2000/svg">
<rect width="30" height="30" rx="15" fill="#B18FFF"/>
<path d="M11.1929 21.7144C11.1929 21.8054 11.0863 21.8781 10.9518 21.8781C10.7988 21.8918 10.6921 21.819 10.6921 21.7144C10.6921 21.6234 10.7988 21.5506 10.9333 21.5506C11.0724 21.537 11.1929 21.6097 11.1929 21.7144ZM9.75081 21.5097C9.71835 21.6006 9.81109 21.7053 9.9502 21.7326C10.0708 21.7781 10.2099 21.7326 10.2377 21.6416C10.2655 21.5506 10.1774 21.446 10.0383 21.405C9.91774 21.3732 9.78327 21.4187 9.75081 21.5097ZM11.8004 21.4323C11.6659 21.4642 11.5732 21.5506 11.5871 21.6552C11.601 21.7462 11.7216 21.8054 11.8607 21.7735C11.9952 21.7417 12.0879 21.6552 12.074 21.5642C12.0601 21.4778 11.9349 21.4187 11.8004 21.4323ZM14.8516 4C8.41996 4 3.5 8.79025 3.5 15.0999C3.5 20.1449 6.73669 24.4621 11.3599 25.9815C11.9534 26.0861 12.1621 25.7267 12.1621 25.431C12.1621 25.149 12.1482 23.5932 12.1482 22.6378C12.1482 22.6378 8.90222 23.3202 8.22056 21.2822C8.22056 21.2822 7.69194 19.9584 6.93145 19.6172C6.93145 19.6172 5.86956 18.903 7.00565 18.9166C7.00565 18.9166 8.16028 19.0076 8.79556 20.0903C9.81109 21.8463 11.5129 21.3413 12.176 21.0411C12.2827 20.3132 12.5841 19.8083 12.9179 19.508C10.3258 19.226 7.71048 18.8575 7.71048 14.4812C7.71048 13.2302 8.0629 12.6024 8.80484 11.8018C8.68427 11.5061 8.29012 10.2869 8.9254 8.71291C9.89456 8.41722 12.125 9.94118 12.125 9.94118C13.0524 9.68643 14.0494 9.55451 15.0371 9.55451C16.0248 9.55451 17.0218 9.68643 17.9492 9.94118C17.9492 9.94118 20.1796 8.41267 21.1488 8.71291C21.7841 10.2915 21.3899 11.5061 21.2694 11.8018C22.0113 12.607 22.4657 13.2348 22.4657 14.4812C22.4657 18.8712 19.7345 19.2214 17.1423 19.508C17.569 19.8674 17.9306 20.5498 17.9306 21.6188C17.9306 23.1519 17.9167 25.0489 17.9167 25.4219C17.9167 25.7176 18.13 26.077 18.719 25.9724C23.356 24.4621 26.5 20.1449 26.5 15.0999C26.5 8.79025 21.2833 4 14.8516 4ZM8.00726 19.69C7.94698 19.7355 7.96089 19.8401 8.03972 19.9266C8.11391 19.9993 8.22056 20.0312 8.28085 19.972C8.34113 19.9266 8.32722 19.8219 8.24839 19.7355C8.17419 19.6627 8.06754 19.6309 8.00726 19.69ZM7.50645 19.3215C7.47399 19.3807 7.52036 19.4534 7.6131 19.4989C7.6873 19.5444 7.78004 19.5308 7.8125 19.4671C7.84496 19.408 7.79859 19.3352 7.70585 19.2897C7.6131 19.2624 7.53891 19.276 7.50645 19.3215ZM9.00887 20.941C8.93468 21.0002 8.9625 21.1366 9.06915 21.2231C9.17581 21.3277 9.31028 21.3413 9.37056 21.2686C9.43085 21.2094 9.40302 21.0729 9.31028 20.9865C9.20827 20.8819 9.06915 20.8682 9.00887 20.941ZM8.48024 20.2723C8.40605 20.3178 8.40605 20.4361 8.48024 20.5407C8.55444 20.6453 8.67964 20.6908 8.73992 20.6453C8.81411 20.5862 8.81411 20.4679 8.73992 20.3633C8.675 20.2586 8.55444 20.2132 8.48024 20.2723Z" fill="#220070"/>
</svg>
