<svg width="51" height="78" viewBox="0 0 51 78" fill="none" xmlns="http://www.w3.org/2000/svg">
<path d="M44.4583 23.0208L27.4791 6.04159C26.9583 5.52075 26.2291 5.20825 25.5 5.20825C24.7708 5.20825 24.0416 5.52075 23.5208 6.04159L19.875 9.68742L24.1458 13.9583C24.5625 13.7499 24.9791 13.6458 25.5 13.6458C27.2708 13.6458 28.625 14.9999 28.625 16.7708C28.625 17.2916 28.5208 17.7083 28.3125 18.1249L32.4791 22.2916C32.8958 22.0833 33.3125 21.9791 33.8333 21.9791C35.6041 21.9791 36.9583 23.3333 36.9583 25.1041C36.9583 26.8749 35.6041 28.2291 33.8333 28.2291C32.0625 28.2291 30.7083 26.8749 30.7083 25.1041C30.7083 24.5833 30.8125 24.1666 31.0208 23.7499L26.8541 19.5833C26.75 19.5833 26.6458 19.6874 26.5416 19.6874V30.5208C27.7916 30.9374 28.625 32.0832 28.625 33.4374C28.625 35.2082 27.2708 36.5624 25.5 36.5624C23.7291 36.5624 22.375 35.2082 22.375 33.4374C22.375 32.0832 23.2083 30.9374 24.4583 30.5208V19.5833C23.2083 19.1666 22.375 18.0208 22.375 16.6666C22.375 16.1458 22.4791 15.7291 22.6875 15.3124L18.4166 11.0416L6.54165 23.0208C6.02081 23.5416 5.70831 24.2708 5.70831 24.9999C5.70831 25.7291 6.02081 26.4583 6.54165 26.9791L23.5208 43.9583C24.0416 44.4791 24.7708 44.7916 25.5 44.7916C26.2291 44.7916 26.9583 44.4791 27.4791 43.9583L44.4583 26.9791C44.9791 26.4583 45.2916 25.7291 45.2916 24.9999C45.2916 24.2708 44.9791 23.5416 44.4583 23.0208Z" fill="#F4511E"/>
<path d="M23.2348 65.168C23.0108 64.7573 22.7028 64.4447 22.3108 64.23C21.9188 64.0153 21.4615 63.908 20.9388 63.908C20.3602 63.908 19.8468 64.0387 19.3988 64.3C18.9508 64.5613 18.6008 64.9347 18.3488 65.42C18.0968 65.9053 17.9708 66.4653 17.9708 67.1C17.9708 67.7533 18.0968 68.3227 18.3488 68.808C18.6102 69.2933 18.9695 69.6667 19.4268 69.928C19.8842 70.1893 20.4162 70.32 21.0228 70.32C21.7695 70.32 22.3808 70.124 22.8568 69.732C23.3328 69.3307 23.6455 68.7753 23.7948 68.066H20.4348V66.568H25.7268V68.276C25.5962 68.9573 25.3162 69.5873 24.8868 70.166C24.4575 70.7447 23.9022 71.2113 23.2208 71.566C22.5488 71.9113 21.7928 72.084 20.9528 72.084C20.0102 72.084 19.1562 71.874 18.3908 71.454C17.6348 71.0247 17.0375 70.432 16.5988 69.676C16.1695 68.92 15.9548 68.0613 15.9548 67.1C15.9548 66.1387 16.1695 65.28 16.5988 64.524C17.0375 63.7587 17.6348 63.166 18.3908 62.746C19.1562 62.3167 20.0055 62.102 20.9388 62.102C22.0402 62.102 22.9968 62.3727 23.8088 62.914C24.6208 63.446 25.1808 64.1973 25.4888 65.168H23.2348ZM28.1709 63.32C27.8256 63.32 27.5363 63.2127 27.3029 62.998C27.0789 62.774 26.9669 62.4987 26.9669 62.172C26.9669 61.8453 27.0789 61.5747 27.3029 61.36C27.5363 61.136 27.8256 61.024 28.1709 61.024C28.5163 61.024 28.8009 61.136 29.0249 61.36C29.2583 61.5747 29.3749 61.8453 29.3749 62.172C29.3749 62.4987 29.2583 62.774 29.0249 62.998C28.8009 63.2127 28.5163 63.32 28.1709 63.32ZM29.1369 64.244V72H27.1769V64.244H29.1369ZM33.3554 65.854V69.606C33.3554 69.8673 33.4161 70.0587 33.5374 70.18C33.6681 70.292 33.8828 70.348 34.1814 70.348H35.0914V72H33.8594C32.2074 72 31.3814 71.1973 31.3814 69.592V65.854H30.4574V64.244H31.3814V62.326H33.3554V64.244H35.0914V65.854H33.3554Z" fill="white"/>
</svg>
