<svg width="51" height="50" viewBox="0 0 51 50" fill="none" xmlns="http://www.w3.org/2000/svg">
<path d="M43.2084 5.20825H7.79175L10.9167 40.6249L25.5001 44.7916L40.0834 40.6249L43.2084 5.20825Z" fill="#E65100"/>
<path d="M25.5 8.33325V41.5624L37.1667 38.2291L39.7708 8.33325H25.5Z" fill="#FF6D00"/>
<path d="M25.5 26.0417V21.8751H34.4583L33.7292 33.8542L25.5 36.5626V32.1876L29.7708 30.7292L30.0833 26.0417H25.5ZM34.7708 17.7084L35.0833 13.5417H25.5V17.7084H34.7708Z" fill="white"/>
<path d="M25.4999 32.1876V36.5626L17.2708 33.8542L16.8541 28.1251H21.0208L21.2291 30.7292L25.4999 32.1876ZM20.3958 17.7084H25.4999V13.5417H16.0208L16.7499 26.0417H25.4999V21.8751H20.7083L20.3958 17.7084Z" fill="#EEEEEE"/>
</svg>
