<svg width="51" height="78" viewBox="0 0 51 78" fill="none" xmlns="http://www.w3.org/2000/svg">
<path d="M25.1354 25.9353C24.0958 24.2593 23.3416 22.8697 22.2969 20.253C20.5302 15.8332 33.0416 11.8395 27.9687 4.16553C30.1677 9.46657 20.076 12.7437 19.1385 17.1582C18.2812 21.2187 25.1302 25.9353 25.1354 25.9353Z" fill="#F44336"/>
<path d="M25.3729 17.9895C25.1729 20.6103 27.6948 22.0072 27.7677 23.9218C27.8261 25.4801 26.2604 26.7791 26.2604 26.7791C26.2604 26.7791 29.1021 26.2207 29.9886 23.8437C30.9729 21.2041 28.0781 19.3968 28.3761 17.2832C28.6542 15.2645 34.6583 11.5093 34.6583 11.5093C34.6583 11.5093 25.824 12.0947 25.3729 17.9895Z" fill="#F44336"/>
<path d="M33.9208 26.099C35.7479 25.6886 37.2886 26.8522 37.2886 28.1928C37.2886 31.2147 33.1 34.0709 33.1 34.0709C33.1 34.0709 39.5844 33.298 39.5844 28.3365C39.5844 25.0553 36.4 24.2355 33.9208 26.099ZM30.8427 28.5365C30.8427 28.5365 32.8646 27.0959 33.4031 26.5553C28.4417 27.6084 17.1136 27.7501 17.1136 26.8355C17.1136 25.9928 20.7667 25.1293 20.7667 25.1293C20.7667 25.1293 12.6698 25.0126 12.6698 27.4011C12.6698 29.8907 23.2688 30.0688 30.8427 28.5365Z" fill="#1565C0"/>
<path d="M29.599 30.8032C24.9021 32.3646 16.2511 31.8657 18.8136 29.7688C17.5656 29.7688 15.7156 30.7719 15.7156 31.7365C15.7156 33.6709 25.0719 35.1646 31.9969 32.3323L29.599 30.8032Z" fill="#1565C0"/>
<path d="M19.9646 34.1033C18.2604 34.1033 17.1573 35.2012 17.1573 36.0012C17.1573 38.4918 27.324 38.7429 31.3521 36.2147L28.7917 34.5147C25.7823 35.8376 18.2229 36.0199 19.9646 34.1033Z" fill="#1565C0"/>
<path d="M38.2927 38.1585C38.2927 37.1835 37.1937 36.7241 36.8 36.5043C39.1208 42.1012 13.5531 41.6668 13.5531 38.3626C13.5531 37.6116 15.4354 36.8762 17.175 37.2241L15.6958 36.3501C12.2292 35.8064 9.875 37.3304 9.875 38.5595C9.875 44.2918 38.2927 44.0158 38.2927 38.1585Z" fill="#1565C0"/>
<path d="M41.125 40.2126C36.8063 44.4783 25.8552 46.0324 14.8427 43.397C25.8552 48.0876 41.0729 45.446 41.125 40.2126Z" fill="#1565C0"/>
<path d="M14.4931 62.228V69.088C14.4931 70.04 14.2178 70.782 13.6671 71.314C13.1164 71.8367 12.3791 72.098 11.4551 72.098C10.5218 72.098 9.76577 71.8273 9.1871 71.286C8.61777 70.7447 8.3331 69.9887 8.3331 69.018H10.2931C10.3024 69.438 10.4004 69.7647 10.5871 69.998C10.7831 70.2313 11.0631 70.348 11.4271 70.348C11.7818 70.348 12.0524 70.236 12.2391 70.012C12.4258 69.788 12.5191 69.48 12.5191 69.088V62.228H14.4931ZM16.2755 68.094C16.2755 67.31 16.4295 66.6147 16.7375 66.008C17.0548 65.4013 17.4795 64.9347 18.0115 64.608C18.5528 64.2813 19.1548 64.118 19.8175 64.118C20.3961 64.118 20.9001 64.2347 21.3295 64.468C21.7681 64.7013 22.1181 64.9953 22.3795 65.35V64.244H24.3535V72H22.3795V70.866C22.1275 71.23 21.7775 71.5333 21.3295 71.776C20.8908 72.0093 20.3821 72.126 19.8035 72.126C19.1501 72.126 18.5528 71.958 18.0115 71.622C17.4795 71.286 17.0548 70.8147 16.7375 70.208C16.4295 69.592 16.2755 68.8873 16.2755 68.094ZM22.3795 68.122C22.3795 67.646 22.2861 67.24 22.0995 66.904C21.9128 66.5587 21.6608 66.2973 21.3435 66.12C21.0261 65.9333 20.6855 65.84 20.3215 65.84C19.9575 65.84 19.6215 65.9287 19.3135 66.106C19.0055 66.2833 18.7535 66.5447 18.5575 66.89C18.3708 67.226 18.2775 67.6273 18.2775 68.094C18.2775 68.5607 18.3708 68.9713 18.5575 69.326C18.7535 69.6713 19.0055 69.9373 19.3135 70.124C19.6308 70.3107 19.9668 70.404 20.3215 70.404C20.6855 70.404 21.0261 70.3153 21.3435 70.138C21.6608 69.9513 21.9128 69.69 22.0995 69.354C22.2861 69.0087 22.3795 68.598 22.3795 68.122ZM29.5018 70.194L31.4618 64.244H33.5478L30.6778 72H28.2978L25.4418 64.244H27.5418L29.5018 70.194ZM34.1446 68.094C34.1446 67.31 34.2986 66.6147 34.6066 66.008C34.924 65.4013 35.3486 64.9347 35.8806 64.608C36.422 64.2813 37.024 64.118 37.6866 64.118C38.2653 64.118 38.7693 64.2347 39.1986 64.468C39.6373 64.7013 39.9873 64.9953 40.2486 65.35V64.244H42.2226V72H40.2486V70.866C39.9966 71.23 39.6466 71.5333 39.1986 71.776C38.76 72.0093 38.2513 72.126 37.6726 72.126C37.0193 72.126 36.422 71.958 35.8806 71.622C35.3486 71.286 34.924 70.8147 34.6066 70.208C34.2986 69.592 34.1446 68.8873 34.1446 68.094ZM40.2486 68.122C40.2486 67.646 40.1553 67.24 39.9686 66.904C39.782 66.5587 39.53 66.2973 39.2126 66.12C38.8953 65.9333 38.5546 65.84 38.1906 65.84C37.8266 65.84 37.4906 65.9287 37.1826 66.106C36.8746 66.2833 36.6226 66.5447 36.4266 66.89C36.24 67.226 36.1466 67.6273 36.1466 68.094C36.1466 68.5607 36.24 68.9713 36.4266 69.326C36.6226 69.6713 36.8746 69.9373 37.1826 70.124C37.5 70.3107 37.836 70.404 38.1906 70.404C38.5546 70.404 38.8953 70.3153 39.2126 70.138C39.53 69.9513 39.782 69.69 39.9686 69.354C40.1553 69.0087 40.2486 68.598 40.2486 68.122Z" fill="white"/>
</svg>
