<svg width="77" height="78" viewBox="0 0 77 78" fill="none" xmlns="http://www.w3.org/2000/svg">
<path d="M19.75 43.75V6.25H57.25V43.75H19.75Z" fill="#FFD600"/>
<path d="M44.2687 34.3199C44.9896 35.4907 45.7729 36.6126 47.4323 36.6126C48.826 36.6126 49.5573 35.9199 49.5573 34.9615C49.5573 33.8147 48.801 33.4074 47.2677 32.7397L46.4271 32.3813C44.001 31.3522 42.3875 30.0626 42.3875 27.3386C42.3875 24.8282 44.3094 22.9178 47.3125 22.9178C49.451 22.9178 50.9875 23.6584 52.0958 25.598L49.4771 27.272C48.901 26.2428 48.2781 25.8376 47.3125 25.8376C46.3271 25.8376 45.7031 26.4595 45.7031 27.272C45.7031 28.2761 46.3281 28.6824 47.7708 29.3042L48.6114 29.6626C51.4708 30.8803 53.0833 32.124 53.0833 34.9199C53.0833 37.9324 50.7042 39.5834 47.5104 39.5834C44.3864 39.5834 42.6125 38.0157 41.625 36.0751L44.2687 34.3199ZM32.2 34.4053C32.7271 35.349 33.5281 36.0751 34.6802 36.0751C35.7823 36.0751 36.4167 35.6397 36.4167 33.947V22.9167H39.8885V34.4803C39.8885 37.9876 37.8542 39.5834 34.8833 39.5834C32.1989 39.5834 30.2614 37.7647 29.4719 36.0751L32.2 34.4053Z" fill="#000001"/>
<path d="M9.49408 62.228V69.088C9.49408 70.04 9.21875 70.782 8.66808 71.314C8.11741 71.8367 7.38008 72.098 6.45608 72.098C5.52274 72.098 4.76674 71.8273 4.18808 71.286C3.61874 70.7447 3.33408 69.9887 3.33408 69.018H5.29408C5.30341 69.438 5.40141 69.7647 5.58808 69.998C5.78408 70.2313 6.06408 70.348 6.42808 70.348C6.78274 70.348 7.05341 70.236 7.24008 70.012C7.42674 69.788 7.52008 69.48 7.52008 69.088V62.228H9.49408ZM11.2765 68.094C11.2765 67.31 11.4305 66.6147 11.7385 66.008C12.0558 65.4013 12.4805 64.9347 13.0125 64.608C13.5538 64.2813 14.1558 64.118 14.8185 64.118C15.3971 64.118 15.9011 64.2347 16.3305 64.468C16.7691 64.7013 17.1191 64.9953 17.3805 65.35V64.244H19.3545V72H17.3805V70.866C17.1285 71.23 16.7785 71.5333 16.3305 71.776C15.8918 72.0093 15.3831 72.126 14.8045 72.126C14.1511 72.126 13.5538 71.958 13.0125 71.622C12.4805 71.286 12.0558 70.8147 11.7385 70.208C11.4305 69.592 11.2765 68.8873 11.2765 68.094ZM17.3805 68.122C17.3805 67.646 17.2871 67.24 17.1005 66.904C16.9138 66.5587 16.6618 66.2973 16.3445 66.12C16.0271 65.9333 15.6865 65.84 15.3225 65.84C14.9585 65.84 14.6225 65.9287 14.3145 66.106C14.0065 66.2833 13.7545 66.5447 13.5585 66.89C13.3718 67.226 13.2785 67.6273 13.2785 68.094C13.2785 68.5607 13.3718 68.9713 13.5585 69.326C13.7545 69.6713 14.0065 69.9373 14.3145 70.124C14.6318 70.3107 14.9678 70.404 15.3225 70.404C15.6865 70.404 16.0271 70.3153 16.3445 70.138C16.6618 69.9513 16.9138 69.69 17.1005 69.354C17.2871 69.0087 17.3805 68.598 17.3805 68.122ZM24.5027 70.194L26.4627 64.244H28.5487L25.6787 72H23.2987L20.4427 64.244H22.5427L24.5027 70.194ZM29.1456 68.094C29.1456 67.31 29.2996 66.6147 29.6076 66.008C29.9249 65.4013 30.3496 64.9347 30.8816 64.608C31.4229 64.2813 32.0249 64.118 32.6876 64.118C33.2663 64.118 33.7703 64.2347 34.1996 64.468C34.6383 64.7013 34.9883 64.9953 35.2496 65.35V64.244H37.2236V72H35.2496V70.866C34.9976 71.23 34.6476 71.5333 34.1996 71.776C33.7609 72.0093 33.2523 72.126 32.6736 72.126C32.0203 72.126 31.4229 71.958 30.8816 71.622C30.3496 71.286 29.9249 70.8147 29.6076 70.208C29.2996 69.592 29.1456 68.8873 29.1456 68.094ZM35.2496 68.122C35.2496 67.646 35.1563 67.24 34.9696 66.904C34.7829 66.5587 34.5309 66.2973 34.2136 66.12C33.8963 65.9333 33.5556 65.84 33.1916 65.84C32.8276 65.84 32.4916 65.9287 32.1836 66.106C31.8756 66.2833 31.6236 66.5447 31.4276 66.89C31.2409 67.226 31.1476 67.6273 31.1476 68.094C31.1476 68.5607 31.2409 68.9713 31.4276 69.326C31.6236 69.6713 31.8756 69.9373 32.1836 70.124C32.5009 70.3107 32.8369 70.404 33.1916 70.404C33.5556 70.404 33.8963 70.3153 34.2136 70.138C34.5309 69.9513 34.7829 69.69 34.9696 69.354C35.1563 69.0087 35.2496 68.598 35.2496 68.122ZM42.5119 72.098C41.8305 72.098 41.2145 71.9813 40.6639 71.748C40.1225 71.5147 39.6932 71.1787 39.3759 70.74C39.0585 70.3013 38.8952 69.7833 38.8859 69.186H40.9859C41.0139 69.5873 41.1539 69.9047 41.4059 70.138C41.6672 70.3713 42.0219 70.488 42.4699 70.488C42.9272 70.488 43.2865 70.3807 43.5479 70.166C43.8092 69.942 43.9399 69.6527 43.9399 69.298C43.9399 69.0087 43.8512 68.7707 43.6739 68.584C43.4965 68.3973 43.2725 68.2527 43.0019 68.15C42.7405 68.038 42.3765 67.9167 41.9099 67.786C41.2752 67.5993 40.7572 67.4173 40.3559 67.24C39.9639 67.0533 39.6232 66.778 39.3339 66.414C39.0539 66.0407 38.9139 65.546 38.9139 64.93C38.9139 64.3513 39.0585 63.8473 39.3479 63.418C39.6372 62.9887 40.0432 62.662 40.5659 62.438C41.0885 62.2047 41.6859 62.088 42.3579 62.088C43.3659 62.088 44.1825 62.3353 44.8079 62.83C45.4425 63.3153 45.7925 63.9967 45.8579 64.874H43.7019C43.6832 64.538 43.5385 64.2627 43.2679 64.048C43.0065 63.824 42.6565 63.712 42.2179 63.712C41.8352 63.712 41.5272 63.81 41.2939 64.006C41.0699 64.202 40.9579 64.4867 40.9579 64.86C40.9579 65.1213 41.0419 65.3407 41.2099 65.518C41.3872 65.686 41.6019 65.826 41.8539 65.938C42.1152 66.0407 42.4792 66.162 42.9459 66.302C43.5805 66.4887 44.0985 66.6753 44.4999 66.862C44.9012 67.0487 45.2465 67.3287 45.5359 67.702C45.8252 68.0753 45.9699 68.5653 45.9699 69.172C45.9699 69.6947 45.8345 70.18 45.5639 70.628C45.2932 71.076 44.8965 71.4353 44.3739 71.706C43.8512 71.9673 43.2305 72.098 42.5119 72.098ZM47.1651 68.122C47.1651 67.3193 47.3285 66.6193 47.6551 66.022C47.9818 65.4153 48.4345 64.9487 49.0131 64.622C49.5918 64.286 50.2545 64.118 51.0011 64.118C51.9625 64.118 52.7558 64.3607 53.3811 64.846C54.0158 65.322 54.4405 65.994 54.6551 66.862H52.5411C52.4291 66.526 52.2378 66.2647 51.9671 66.078C51.7058 65.882 51.3791 65.784 50.9871 65.784C50.4271 65.784 49.9838 65.9893 49.6571 66.4C49.3305 66.8013 49.1671 67.3753 49.1671 68.122C49.1671 68.8593 49.3305 69.4333 49.6571 69.844C49.9838 70.2453 50.4271 70.446 50.9871 70.446C51.7805 70.446 52.2985 70.0913 52.5411 69.382H54.6551C54.4405 70.222 54.0158 70.8893 53.3811 71.384C52.7465 71.8787 51.9531 72.126 51.0011 72.126C50.2545 72.126 49.5918 71.9627 49.0131 71.636C48.4345 71.3 47.9818 70.8333 47.6551 70.236C47.3285 69.6293 47.1651 68.9247 47.1651 68.122ZM58.051 65.448C58.303 65.0373 58.6297 64.7153 59.031 64.482C59.4417 64.2487 59.9083 64.132 60.431 64.132V66.19H59.913C59.297 66.19 58.8303 66.3347 58.513 66.624C58.205 66.9133 58.051 67.4173 58.051 68.136V72H56.091V64.244H58.051V65.448ZM62.7452 63.32C62.3998 63.32 62.1105 63.2127 61.8772 62.998C61.6532 62.774 61.5412 62.4987 61.5412 62.172C61.5412 61.8453 61.6532 61.5747 61.8772 61.36C62.1105 61.136 62.3998 61.024 62.7452 61.024C63.0905 61.024 63.3752 61.136 63.5992 61.36C63.8325 61.5747 63.9492 61.8453 63.9492 62.172C63.9492 62.4987 63.8325 62.774 63.5992 62.998C63.3752 63.2127 63.0905 63.32 62.7452 63.32ZM63.7112 64.244V72H61.7512V64.244H63.7112ZM67.6076 65.364C67.8596 65.0093 68.205 64.7153 68.6436 64.482C69.0916 64.2393 69.6003 64.118 70.1696 64.118C70.8323 64.118 71.4296 64.2813 71.9616 64.608C72.503 64.9347 72.9276 65.4013 73.2356 66.008C73.553 66.6053 73.7116 67.3007 73.7116 68.094C73.7116 68.8873 73.553 69.592 73.2356 70.208C72.9276 70.8147 72.503 71.286 71.9616 71.622C71.4296 71.958 70.8323 72.126 70.1696 72.126C69.6003 72.126 69.0963 72.0093 68.6576 71.776C68.2283 71.5427 67.8783 71.2487 67.6076 70.894V75.696H65.6476V64.244H67.6076V65.364ZM71.7096 68.094C71.7096 67.6273 71.6116 67.226 71.4156 66.89C71.229 66.5447 70.977 66.2833 70.6596 66.106C70.3516 65.9287 70.0156 65.84 69.6516 65.84C69.297 65.84 68.961 65.9333 68.6436 66.12C68.3356 66.2973 68.0836 66.5587 67.8876 66.904C67.701 67.2493 67.6076 67.6553 67.6076 68.122C67.6076 68.5887 67.701 68.9947 67.8876 69.34C68.0836 69.6853 68.3356 69.9513 68.6436 70.138C68.961 70.3153 69.297 70.404 69.6516 70.404C70.0156 70.404 70.3516 70.3107 70.6596 70.124C70.977 69.9373 71.229 69.6713 71.4156 69.326C71.6116 68.9807 71.7096 68.57 71.7096 68.094Z" fill="white"/>
</svg>
