<svg width="25" height="26" viewBox="0 0 25 26" fill="none" xmlns="http://www.w3.org/2000/svg">
<path d="M12.118 0.516744C11.7854 0.619409 11.4333 0.90785 11.267 1.22073C11.1692 1.40162 11.1594 1.4994 11.1447 2.48205C11.1301 3.51359 11.1301 3.5527 11.2474 3.80203C11.7463 4.89713 13.2624 4.89713 13.7612 3.80203C13.8786 3.5527 13.8786 3.51359 13.864 2.48205C13.8493 1.29407 13.8248 1.20118 13.4727 0.868739C13.1206 0.536299 12.5435 0.384746 12.118 0.516744Z" fill="#09001F"/>
<path d="M4.24868 3.81183C3.81341 3.94383 3.49552 4.26161 3.33412 4.71138C3.23142 5.00471 3.2412 5.29804 3.36347 5.63048C3.45639 5.87492 3.56399 6.00691 4.14109 6.58379C4.8698 7.31712 5.07032 7.44423 5.5545 7.48823C6.52286 7.57134 7.27602 6.54957 6.92878 5.6207C6.83097 5.36648 6.72827 5.23937 6.12671 4.63804C5.53005 4.04161 5.398 3.93405 5.15346 3.84117C4.83557 3.72384 4.5568 3.71406 4.24868 3.81183Z" fill="#09001F"/>
<path d="M19.8451 3.84606C19.6397 3.92428 19.4587 4.06605 19.0039 4.50605C18.3192 5.17093 18.104 5.46914 18.0355 5.84069C17.8204 7.05801 19.1457 7.91844 20.1679 7.22912C20.3048 7.13134 20.6716 6.79401 20.9797 6.48113C21.4444 6.00203 21.5568 5.85536 21.6498 5.61581C21.9139 4.91182 21.5471 4.10516 20.8379 3.83628C20.5005 3.71406 20.1826 3.71406 19.8451 3.84606Z" fill="#09001F"/>
<path d="M11.844 7.45886C10.6213 7.59575 9.34483 8.24107 8.46939 9.16994C5.89689 11.893 6.70874 16.3321 10.0784 17.9649C13.5557 19.6516 17.6248 17.3832 18.0307 13.5308C18.3486 10.5241 16.1233 7.78641 13.1009 7.45886C12.5384 7.40019 12.4064 7.40019 11.844 7.45886Z" fill="#09001F"/>
<path d="M0.962244 11.6535C0.605223 11.761 0.316672 12.0202 0.121045 12.3917C-0.0403482 12.7046 -0.0403482 13.2521 0.121045 13.565C0.267765 13.8437 0.492737 14.0832 0.742163 14.2152C0.923118 14.313 1.02093 14.3228 2.00396 14.3375C3.0359 14.3521 3.07502 14.3521 3.32445 14.2348C4.41507 13.7361 4.41996 12.2304 3.33423 11.7268C3.10437 11.6144 3.04079 11.6095 2.0871 11.6144C1.53445 11.6144 1.03071 11.6339 0.962244 11.6535Z" fill="#09001F"/>
<path d="M21.6743 11.7219C20.5886 12.2353 20.5934 13.7361 21.6841 14.2348C21.9335 14.3521 21.9726 14.3521 23.0046 14.3375C24.193 14.3228 24.2859 14.2983 24.6185 13.9463C24.8973 13.653 25 13.389 25 12.9784C25 12.5677 24.8973 12.3037 24.6185 12.0104C24.2859 11.6584 24.193 11.6339 22.9948 11.6193C21.9482 11.6095 21.9139 11.6095 21.6743 11.7219Z" fill="#09001F"/>
<path d="M5.11935 18.5565C4.89438 18.6445 4.73299 18.7814 4.16078 19.3534C3.36359 20.1552 3.24622 20.3409 3.24622 20.8445C3.24622 21.6414 3.8331 22.2329 4.63028 22.2329C5.14869 22.2329 5.33454 22.1205 6.11216 21.3431C6.84087 20.6049 6.96803 20.4045 7.01205 19.9254C7.10008 18.9525 6.04858 18.1947 5.11935 18.5565Z" fill="#09001F"/>
<path d="M19.0087 18.5467C18.774 18.6201 18.593 18.7374 18.417 18.9281C18.1186 19.241 18.0551 19.4023 18.0551 19.8716C18.0551 20.4387 18.1382 20.5805 18.9305 21.3676C19.4831 21.92 19.6103 22.0227 19.8646 22.1156C20.5787 22.3845 21.3807 22.0227 21.6497 21.3089C21.7769 20.9667 21.772 20.6783 21.6399 20.3263C21.5519 20.0818 21.4443 19.9498 20.8965 19.4023C20.52 19.0258 20.1629 18.713 20.0358 18.6494C19.801 18.5272 19.2337 18.4734 19.0087 18.5467Z" fill="#09001F"/>
<path d="M11.9419 21.4556C11.624 21.6022 11.3942 21.8369 11.2474 22.1547C11.1301 22.404 11.1301 22.4431 11.1447 23.4747C11.1594 24.6626 11.1839 24.7555 11.536 25.088C11.8294 25.3666 12.0935 25.4693 12.5043 25.4693C12.9152 25.4693 13.1793 25.3666 13.4727 25.088C13.8248 24.7555 13.8493 24.6626 13.864 23.4747C13.8786 22.4431 13.8786 22.404 13.7612 22.1547C13.4385 21.4507 12.6217 21.1378 11.9419 21.4556Z" fill="#09001F"/>
</svg>
