<svg width="41" height="40" viewBox="0 0 41 40" fill="none" xmlns="http://www.w3.org/2000/svg">
<path d="M33 21.1261C32.7811 23.4953 31.8919 25.7532 30.4366 27.6355C28.9812 29.5178 27.0199 30.9467 24.7822 31.755C22.5444 32.5633 20.1227 32.7176 17.8004 32.1997C15.4781 31.6819 13.3514 30.5135 11.669 28.8311C9.98654 27.1486 8.81806 25.0219 8.30025 22.6996C7.78244 20.3773 7.93671 17.9556 8.74502 15.7178C9.55332 13.4801 10.9822 11.5188 12.8645 10.0634C14.7468 8.6081 17.0047 7.71894 19.3739 7.5C17.9868 9.37657 17.3193 11.6887 17.4928 14.0158C17.6664 16.3429 18.6694 18.5304 20.3195 20.1805C21.9696 21.8306 24.1571 22.8336 26.4842 23.0072C28.8113 23.1807 31.1234 22.5132 33 21.1261Z" stroke="white" stroke-width="2" stroke-linecap="round" stroke-linejoin="round"/>
</svg>
