<svg width="57" height="78" viewBox="0 0 57 78" fill="none" xmlns="http://www.w3.org/2000/svg">
<path fill-rule="evenodd" clip-rule="evenodd" d="M17.2266 10.7266C16.8127 10.7253 16.4004 10.7778 16 10.8828V10.9375H16.0594C16.3461 11.3704 16.6658 11.7804 17.0156 12.1641C17.2562 12.6422 17.4656 13.1188 17.7047 13.5969C17.7344 13.5672 17.7641 13.536 17.7641 13.536C17.986 13.3598 18.1598 13.1302 18.269 12.8688C18.3783 12.6073 18.4196 12.3224 18.3891 12.0406C18.2582 11.8389 18.1382 11.6302 18.0297 11.4156C17.85 11.1172 17.4609 10.9672 17.2219 10.7281" fill="#5D87A1"/>
<path fill-rule="evenodd" clip-rule="evenodd" d="M46.9062 36.8016C44.9353 36.6631 42.9575 36.9487 41.1062 37.6391C40.6578 37.8188 39.9422 37.8188 39.8797 38.386C40.1203 38.625 40.1484 39.011 40.3594 39.3438C40.7686 40.0367 41.2946 40.6536 41.914 41.1672C42.539 41.6453 43.164 42.1219 43.8281 42.5407C44.9922 43.261 46.3094 43.6782 47.4437 44.3953C48.1031 44.8141 48.7594 45.3516 49.4187 45.8016C49.7469 46.0407 49.9547 46.4266 50.3734 46.5828V46.4922C50.2504 46.1602 50.0982 45.8396 49.9187 45.5344C49.6203 45.2375 49.3203 44.9672 49.0203 44.6688C48.1438 43.5099 47.0952 42.4918 45.9109 41.65C44.9531 40.9907 42.8594 40.0875 42.4734 38.9938L42.4125 38.9328C43.1133 38.8335 43.804 38.6725 44.4765 38.4516C45.4922 38.1828 46.4187 38.2438 47.464 37.9828C47.9437 37.8625 48.8109 37.5641 48.8109 37.5641V37.0953C48.2765 36.5641 47.8937 35.8532 47.3312 35.3516C45.8009 34.0157 44.1701 32.7997 42.4531 31.7141C41.5359 31.1219 40.3531 30.7407 39.3765 30.236C39.0234 30.0578 38.439 29.9703 38.225 29.6735C37.7393 28.9609 37.3327 28.1976 37.0125 27.3969C36.1562 25.7719 35.3265 23.9703 34.589 22.2516C34.1525 21.0997 33.6491 19.9744 33.0812 18.8813C30.3411 14.2226 26.386 10.3966 21.639 7.81253C20.4413 7.23277 19.1678 6.82459 17.8562 6.60003C17.1156 6.56878 16.3781 6.51097 15.639 6.48284C15.162 6.17029 14.7082 5.82354 14.2812 5.44534C12.5906 4.37503 8.24685 2.07503 7.0031 5.12034C6.20623 7.04378 8.18748 8.9344 8.86717 9.91097C9.44028 10.5995 9.94525 11.3421 10.375 12.1282C10.5828 12.6313 10.6422 13.1641 10.8437 13.6907C11.2775 15.0424 11.7925 16.3667 12.3859 17.6563C12.7033 18.2937 13.069 18.9059 13.4797 19.4875C13.7187 19.8141 14.1312 19.9563 14.2203 20.4953C13.8926 21.1997 13.6634 21.9457 13.539 22.7125C13.0225 24.3436 12.8325 26.0605 12.9797 27.7651C13.1268 29.4696 13.6084 31.1285 14.3969 32.6469C14.8656 33.386 15.9937 35.0125 17.5015 34.3907C18.8312 33.8594 18.5359 32.1735 18.9203 30.6969C19.0078 30.3391 18.95 30.1047 19.1265 29.8688V30.1563C19.1265 30.1563 19.8812 31.8141 20.2562 32.6563C21.276 34.2016 22.5429 35.5688 24.0062 36.7032C24.585 37.2085 25.0513 37.8297 25.375 38.5266V39.0625H26.0422C26.0283 38.8209 25.9613 38.5853 25.846 38.3725C25.7306 38.1596 25.5698 37.9749 25.375 37.8313C24.8279 37.2681 24.3268 36.662 23.8765 36.0188C22.6535 34.2769 21.5749 32.438 20.6515 30.5203C20.1828 29.5828 19.7875 28.5547 19.4125 27.6188C19.2406 27.2578 19.2406 26.7125 18.9515 26.525C18.4178 27.1565 17.9546 27.8445 17.5703 28.5766C17.1037 30.0563 16.8322 31.5906 16.7625 33.1407C16.6484 33.1719 16.7047 33.1407 16.6484 33.2C15.7281 32.9578 15.4109 31.9625 15.064 31.1188C14.168 28.5165 14.0776 25.7045 14.8047 23.05C15.0047 22.4172 15.8719 20.4235 15.525 19.8188C15.3515 19.2422 14.775 18.9125 14.4594 18.4578C14.0564 17.8462 13.7097 17.1992 13.4234 16.525C12.7375 14.8438 12.3906 12.9688 11.6437 11.275C11.2303 10.4604 10.7489 9.68216 10.2047 8.94847C9.60266 8.21555 9.07163 7.42712 8.61873 6.59378C8.47498 6.26097 8.27342 5.71722 8.5031 5.35472C8.5186 5.25402 8.56649 5.16112 8.63951 5.09007C8.71253 5.01903 8.80671 4.9737 8.90779 4.96097C9.27967 4.62972 10.3469 5.05159 10.7203 5.23284C11.724 5.62797 12.68 6.1348 13.5703 6.74378C13.9734 7.0469 14.9234 7.81409 14.9234 7.81409H15.2047C16.1609 8.0219 17.2359 7.8719 18.1359 8.14222C19.6513 8.64736 21.0974 9.34025 22.4406 10.2047C26.3995 12.7284 29.6178 16.2573 31.7672 20.4313C32.1265 21.1172 32.2781 21.7469 32.6062 22.4625C33.2312 23.9313 34.0125 25.4313 34.6375 26.8594C35.1888 28.2723 35.9019 29.6167 36.7625 30.8657C37.2094 31.4907 39.0047 31.8219 39.8125 32.15C40.514 32.3927 41.2024 32.6717 41.875 32.986C42.8922 33.611 43.9062 34.3313 44.864 35.0172C45.3406 35.3766 46.8359 36.1235 46.9265 36.7219" fill="#00758F"/>
<path d="M16.5975 62.228V72H14.6375V65.644L12.0195 72H10.5355L7.90354 65.644V72H5.94354V62.228H8.16954L11.2775 69.494L14.3855 62.228H16.5975ZM25.9553 64.244L21.1533 75.668H19.0673L20.7473 71.804L17.6393 64.244H19.8373L21.8393 69.662L23.8693 64.244H25.9553ZM30.3859 72.098C29.7046 72.098 29.0886 71.9813 28.5379 71.748C27.9966 71.5147 27.5672 71.1787 27.2499 70.74C26.9326 70.3013 26.7692 69.7833 26.7599 69.186H28.8599C28.8879 69.5873 29.0279 69.9047 29.2799 70.138C29.5412 70.3713 29.8959 70.488 30.3439 70.488C30.8012 70.488 31.1606 70.3807 31.4219 70.166C31.6832 69.942 31.8139 69.6527 31.8139 69.298C31.8139 69.0087 31.7252 68.7707 31.5479 68.584C31.3706 68.3973 31.1466 68.2527 30.8759 68.15C30.6146 68.038 30.2506 67.9167 29.7839 67.786C29.1492 67.5993 28.6312 67.4173 28.2299 67.24C27.8379 67.0533 27.4972 66.778 27.2079 66.414C26.9279 66.0407 26.7879 65.546 26.7879 64.93C26.7879 64.3513 26.9326 63.8473 27.2219 63.418C27.5112 62.9887 27.9172 62.662 28.4399 62.438C28.9626 62.2047 29.5599 62.088 30.2319 62.088C31.2399 62.088 32.0566 62.3353 32.6819 62.83C33.3166 63.3153 33.6666 63.9967 33.7319 64.874H31.5759C31.5572 64.538 31.4126 64.2627 31.1419 64.048C30.8806 63.824 30.5306 63.712 30.0919 63.712C29.7092 63.712 29.4012 63.81 29.1679 64.006C28.9439 64.202 28.8319 64.4867 28.8319 64.86C28.8319 65.1213 28.9159 65.3407 29.0839 65.518C29.2612 65.686 29.4759 65.826 29.7279 65.938C29.9892 66.0407 30.3532 66.162 30.8199 66.302C31.4546 66.4887 31.9726 66.6753 32.3739 66.862C32.7752 67.0487 33.1206 67.3287 33.4099 67.702C33.6992 68.0753 33.8439 68.5653 33.8439 69.172C33.8439 69.6947 33.7086 70.18 33.4379 70.628C33.1672 71.076 32.7706 71.4353 32.2479 71.706C31.7252 71.9673 31.1046 72.098 30.3859 72.098ZM42.8231 73.722L41.3391 71.944C40.9285 72.0467 40.5085 72.098 40.0791 72.098C39.1645 72.098 38.3245 71.8833 37.5591 71.454C36.7938 71.0247 36.1871 70.432 35.7391 69.676C35.2911 68.9107 35.0671 68.0473 35.0671 67.086C35.0671 66.134 35.2911 65.28 35.7391 64.524C36.1871 63.7587 36.7938 63.1613 37.5591 62.732C38.3245 62.3027 39.1645 62.088 40.0791 62.088C41.0031 62.088 41.8431 62.3027 42.5991 62.732C43.3645 63.1613 43.9665 63.7587 44.4051 64.524C44.8531 65.28 45.0771 66.134 45.0771 67.086C45.0771 67.954 44.8905 68.7473 44.5171 69.466C44.1531 70.1753 43.6538 70.754 43.0191 71.202L45.2591 73.722H42.8231ZM37.0831 67.086C37.0831 67.7393 37.2091 68.3133 37.4611 68.808C37.7131 69.3027 38.0631 69.6853 38.5111 69.956C38.9685 70.2173 39.4911 70.348 40.0791 70.348C40.6671 70.348 41.1851 70.2173 41.6331 69.956C42.0811 69.6853 42.4311 69.3027 42.6831 68.808C42.9351 68.3133 43.0611 67.7393 43.0611 67.086C43.0611 66.4327 42.9351 65.8633 42.6831 65.378C42.4311 64.8833 42.0811 64.5053 41.6331 64.244C41.1851 63.9827 40.6671 63.852 40.0791 63.852C39.4911 63.852 38.9685 63.9827 38.5111 64.244C38.0631 64.5053 37.7131 64.8833 37.4611 65.378C37.2091 65.8633 37.0831 66.4327 37.0831 67.086ZM48.5227 70.446H51.7427V72H46.5627V62.228H48.5227V70.446Z" fill="white"/>
</svg>
