<svg width="51" height="50" viewBox="0 0 51 50" fill="none" xmlns="http://www.w3.org/2000/svg">
<path fill-rule="evenodd" clip-rule="evenodd" d="M14.2266 10.7266C13.8127 10.7253 13.4004 10.7778 13 10.8828V10.9375H13.0594C13.3461 11.3704 13.6658 11.7804 14.0156 12.1641C14.2562 12.6422 14.4656 13.1188 14.7047 13.5969C14.7344 13.5672 14.7641 13.536 14.7641 13.536C14.986 13.3598 15.1598 13.1302 15.269 12.8688C15.3783 12.6073 15.4196 12.3224 15.3891 12.0406C15.2582 11.8389 15.1382 11.6302 15.0297 11.4156C14.85 11.1172 14.4609 10.9672 14.2219 10.7281" fill="#5D87A1"/>
<path fill-rule="evenodd" clip-rule="evenodd" d="M43.9064 36.8016C41.9354 36.6631 39.9577 36.9487 38.1064 37.6391C37.658 37.8188 36.9423 37.8188 36.8798 38.386C37.1205 38.625 37.1486 39.011 37.3595 39.3438C37.7688 40.0367 38.2948 40.6536 38.9142 41.1672C39.5392 41.6453 40.1642 42.1219 40.8283 42.5407C41.9923 43.261 43.3095 43.6782 44.4439 44.3953C45.1033 44.8141 45.7595 45.3516 46.4189 45.8016C46.747 46.0407 46.9548 46.4266 47.3736 46.5828V46.4922C47.2506 46.1602 47.0984 45.8396 46.9189 45.5344C46.6205 45.2375 46.3205 44.9672 46.0205 44.6688C45.144 43.5099 44.0954 42.4918 42.9111 41.65C41.9533 40.9907 39.8595 40.0875 39.4736 38.9938L39.4127 38.9328C40.1135 38.8335 40.8042 38.6725 41.4767 38.4516C42.4923 38.1828 43.4189 38.2438 44.4642 37.9828C44.9439 37.8625 45.8111 37.5641 45.8111 37.5641V37.0953C45.2767 36.5641 44.8939 35.8532 44.3314 35.3516C42.8011 34.0157 41.1702 32.7997 39.4533 31.7141C38.5361 31.1219 37.3533 30.7407 36.3767 30.236C36.0236 30.0578 35.4392 29.9703 35.2252 29.6735C34.7395 28.9609 34.3329 28.1976 34.0127 27.3969C33.1564 25.7719 32.3267 23.9703 31.5892 22.2516C31.1527 21.0997 30.6492 19.9744 30.0814 18.8813C27.3413 14.2226 23.3862 10.3966 18.6392 7.81253C17.4415 7.23277 16.168 6.82459 14.8564 6.60003C14.1158 6.56878 13.3783 6.51097 12.6392 6.48284C12.1621 6.17029 11.7083 5.82354 11.2814 5.44534C9.59079 4.37503 5.24704 2.07503 4.00329 5.12034C3.20641 7.04378 5.18766 8.9344 5.86735 9.91097C6.44046 10.5995 6.94543 11.3421 7.37516 12.1282C7.58297 12.6313 7.64235 13.1641 7.84391 13.6907C8.27764 15.0424 8.79264 16.3667 9.3861 17.6563C9.70351 18.2937 10.0692 18.9059 10.4798 19.4875C10.7189 19.8141 11.1314 19.9563 11.2205 20.4953C10.8928 21.1997 10.6636 21.9457 10.5392 22.7125C10.0227 24.3436 9.83265 26.0605 9.97983 27.7651C10.127 29.4696 10.6086 31.1285 11.397 32.6469C11.8658 33.386 12.9939 35.0125 14.5017 34.3907C15.8314 33.8594 15.5361 32.1735 15.9205 30.6969C16.008 30.3391 15.9502 30.1047 16.1267 29.8688V30.1563C16.1267 30.1563 16.8814 31.8141 17.2564 32.6563C18.2762 34.2016 19.5431 35.5688 21.0064 36.7032C21.5852 37.2085 22.0515 37.8297 22.3752 38.5266V39.0625H23.0424C23.0285 38.8209 22.9615 38.5853 22.8461 38.3725C22.7308 38.1596 22.57 37.9749 22.3752 37.8313C21.828 37.2681 21.327 36.662 20.8767 36.0188C19.6537 34.2769 18.5751 32.438 17.6517 30.5203C17.183 29.5828 16.7877 28.5547 16.4127 27.6188C16.2408 27.2578 16.2408 26.7125 15.9517 26.525C15.418 27.1565 14.9548 27.8445 14.5705 28.5766C14.1039 30.0563 13.8323 31.5906 13.7627 33.1407C13.6486 33.1719 13.7048 33.1407 13.6486 33.2C12.7283 32.9578 12.4111 31.9625 12.0642 31.1188C11.1681 28.5165 11.0778 25.7045 11.8048 23.05C12.0048 22.4172 12.872 20.4235 12.5252 19.8188C12.3517 19.2422 11.7752 18.9125 11.4595 18.4578C11.0566 17.8462 10.7099 17.1992 10.4236 16.525C9.73766 14.8438 9.39079 12.9688 8.64391 11.275C8.23047 10.4604 7.74908 9.68216 7.20485 8.94847C6.60284 8.21555 6.07181 7.42712 5.61891 6.59378C5.47516 6.26097 5.2736 5.71722 5.50329 5.35472C5.51879 5.25402 5.56667 5.16112 5.63969 5.09007C5.71271 5.01903 5.80689 4.9737 5.90797 4.96097C6.27985 4.62972 7.34704 5.05159 7.72047 5.23284C8.72415 5.62797 9.68017 6.1348 10.5705 6.74378C10.9736 7.0469 11.9236 7.81409 11.9236 7.81409H12.2048C13.1611 8.0219 14.2361 7.8719 15.1361 8.14222C16.6515 8.64736 18.0976 9.34025 19.4408 10.2047C23.3997 12.7284 26.618 16.2573 28.7673 20.4313C29.1267 21.1172 29.2783 21.7469 29.6064 22.4625C30.2314 23.9313 31.0127 25.4313 31.6377 26.8594C32.189 28.2723 32.9021 29.6167 33.7627 30.8657C34.2095 31.4907 36.0048 31.8219 36.8127 32.15C37.5142 32.3927 38.2026 32.6717 38.8752 32.986C39.8923 33.611 40.9064 34.3313 41.8642 35.0172C42.3408 35.3766 43.8361 36.1235 43.9267 36.7219" fill="#00758F"/>
</svg>
