<svg width="52" height="78" viewBox="0 0 52 78" fill="none" xmlns="http://www.w3.org/2000/svg">
<path d="M26.049 5.20833C24.4292 5.21354 23.3063 5.35624 21.949 5.59062C17.9407 6.28854 17.2104 7.75416 17.2104 10.4552V14.5833H26.5854V16.6667H16.8542H12.3229C9.57711 16.6667 7.17399 17.9604 6.41253 21.0615C5.55211 24.6208 5.51357 26.85 6.41253 30.5667C7.09482 33.3385 8.59795 35.4167 11.3448 35.4167H15.1282V30.1C15.1282 27.0104 17.9261 23.9583 21.1323 23.9583H28.6698C31.2979 23.9583 33.8782 22.0187 33.8782 19.399V10.4552C33.8782 7.91458 32.0459 6.01458 29.4844 5.58854C29.5479 5.58229 27.6552 5.20208 26.049 5.20833ZM20.8573 9.37499C21.7125 9.37499 22.4198 10.0802 22.4198 10.9396C22.4198 11.8073 21.7125 12.5 20.8573 12.5C19.9854 12.5 19.2948 11.8083 19.2948 10.9396C19.2948 10.0833 19.9854 9.37499 20.8573 9.37499Z" fill="#0277BD"/>
<path d="M25.0396 44.7916C26.6593 44.7864 27.7823 44.6437 29.1396 44.4093C33.1479 43.7114 33.8781 42.2458 33.8781 39.5447V35.4166H24.5031V33.3333H34.2354H38.7666C41.5125 33.3333 43.9156 32.0395 44.6771 28.9385C45.5375 25.3791 45.576 23.1499 44.6771 19.4333C43.9937 16.6614 42.4906 14.5833 39.7437 14.5833H35.9604V19.8999C35.9604 22.9895 33.1625 26.0416 29.9562 26.0416H22.4187C19.7906 26.0416 17.2104 27.9812 17.2104 30.601V39.5447C17.2104 42.0853 19.0427 43.9853 21.6041 44.4114C21.5406 44.4176 23.4333 44.7978 25.0396 44.7916ZM30.2323 40.6249C29.3771 40.6249 28.6698 39.9197 28.6698 39.0603C28.6698 38.1926 29.3771 37.4999 30.2323 37.4999C31.1041 37.4999 31.7948 38.1916 31.7948 39.0603C31.7948 39.9166 31.1031 40.6249 30.2323 40.6249Z" fill="#FFC107"/>
<path d="M9.16134 65.252C9.16134 65.7747 9.03534 66.2647 8.78334 66.722C8.54067 67.1793 8.15334 67.548 7.62134 67.828C7.09867 68.108 6.436 68.248 5.63334 68.248H3.99534V72H2.03534V62.228H5.63334C6.38934 62.228 7.03334 62.3587 7.56534 62.62C8.09734 62.8813 8.494 63.2407 8.75534 63.698C9.026 64.1553 9.16134 64.6733 9.16134 65.252ZM5.54934 66.666C6.09067 66.666 6.492 66.5447 6.75334 66.302C7.01467 66.05 7.14534 65.7 7.14534 65.252C7.14534 64.3 6.61334 63.824 5.54934 63.824H3.99534V66.666H5.54934ZM17.9729 64.244L13.1709 75.668H11.0849L12.7649 71.804L9.65691 64.244H11.8549L13.8569 69.662L15.8869 64.244H17.9729ZM21.3115 65.854V69.606C21.3115 69.8673 21.3721 70.0587 21.4935 70.18C21.6241 70.292 21.8388 70.348 22.1375 70.348H23.0475V72H21.8155C20.1635 72 19.3375 71.1973 19.3375 69.592V65.854H18.4135V64.244H19.3375V62.326H21.3115V64.244H23.0475V65.854H21.3115ZM28.8252 64.132C29.4132 64.132 29.9359 64.2627 30.3932 64.524C30.8505 64.776 31.2052 65.154 31.4572 65.658C31.7185 66.1527 31.8492 66.75 31.8492 67.45V72H29.8892V67.716C29.8892 67.1 29.7352 66.6287 29.4272 66.302C29.1192 65.966 28.6992 65.798 28.1672 65.798C27.6259 65.798 27.1965 65.966 26.8792 66.302C26.5712 66.6287 26.4172 67.1 26.4172 67.716V72H24.4572V61.64H26.4172V65.21C26.6692 64.874 27.0052 64.6127 27.4252 64.426C27.8452 64.23 28.3119 64.132 28.8252 64.132ZM37.1571 72.126C36.4104 72.126 35.7384 71.9627 35.1411 71.636C34.5437 71.3 34.0724 70.8287 33.7271 70.222C33.3911 69.6153 33.2231 68.9153 33.2231 68.122C33.2231 67.3287 33.3957 66.6287 33.7411 66.022C34.0957 65.4153 34.5764 64.9487 35.1831 64.622C35.7897 64.286 36.4664 64.118 37.2131 64.118C37.9597 64.118 38.6364 64.286 39.2431 64.622C39.8497 64.9487 40.3257 65.4153 40.6711 66.022C41.0257 66.6287 41.2031 67.3287 41.2031 68.122C41.2031 68.9153 41.0211 69.6153 40.6571 70.222C40.3024 70.8287 39.8171 71.3 39.2011 71.636C38.5944 71.9627 37.9131 72.126 37.1571 72.126ZM37.1571 70.418C37.5117 70.418 37.8431 70.334 38.1511 70.166C38.4684 69.9887 38.7204 69.7273 38.9071 69.382C39.0937 69.0367 39.1871 68.6167 39.1871 68.122C39.1871 67.3847 38.9911 66.82 38.5991 66.428C38.2164 66.0267 37.7451 65.826 37.1851 65.826C36.6251 65.826 36.1537 66.0267 35.7711 66.428C35.3977 66.82 35.2111 67.3847 35.2111 68.122C35.2111 68.8593 35.3931 69.4287 35.7571 69.83C36.1304 70.222 36.5971 70.418 37.1571 70.418ZM46.9388 64.132C47.8628 64.132 48.6095 64.426 49.1788 65.014C49.7481 65.5927 50.0328 66.4047 50.0328 67.45V72H48.0728V67.716C48.0728 67.1 47.9188 66.6287 47.6108 66.302C47.3028 65.966 46.8828 65.798 46.3508 65.798C45.8095 65.798 45.3801 65.966 45.0628 66.302C44.7548 66.6287 44.6008 67.1 44.6008 67.716V72H42.6408V64.244H44.6008V65.21C44.8621 64.874 45.1935 64.6127 45.5948 64.426C46.0055 64.23 46.4535 64.132 46.9388 64.132Z" fill="white"/>
</svg>
