<svg width="45" height="74" viewBox="0 0 45 74" fill="none" xmlns="http://www.w3.org/2000/svg">
<path d="M22.5 32.5834C10.4063 32.5834 0.9375 28.3667 0.9375 23.0001C0.9375 17.6334 10.4063 13.4167 22.5 13.4167C34.5937 13.4167 44.0625 17.6334 44.0625 23.0001C44.0625 28.3667 34.5937 32.5834 22.5 32.5834ZM22.5 15.3334C10.6875 15.3334 2.8125 19.2626 2.8125 23.0001C2.8125 26.7376 10.6875 30.6667 22.5 30.6667C34.3125 30.6667 42.1875 26.7376 42.1875 23.0001C42.1875 19.2626 34.3125 15.3334 22.5 15.3334Z" fill="#80DEEA"/>
<path d="M14.1563 42.7415C13.2188 42.7415 12.4688 42.5499 11.7188 42.0707C7.12501 39.3874 8.34376 28.9415 14.3438 18.2082C17.1563 13.2249 20.625 9.00821 24 6.32488C27.6563 3.44988 30.9375 2.58738 33.1875 3.92905C35.5313 5.27072 36.375 8.62488 35.8125 13.3207C35.25 17.729 33.375 22.904 30.5625 27.8874C27.75 32.8707 24.2813 37.0874 20.9063 39.7707C18.4688 41.6874 16.125 42.7415 14.1563 42.7415ZM30.8438 5.17488C29.3438 5.17488 27.375 6.03738 25.2188 7.76238C22.0313 10.3499 18.75 14.3749 16.0313 19.1665C10.125 29.6124 9.56251 38.6207 12.6563 40.4415C14.25 41.3999 16.875 40.5374 19.7813 38.2374C22.9688 35.6499 26.25 31.6249 28.9688 26.8332C31.6875 22.0415 33.4688 17.154 34.0313 13.0332C34.5 9.19988 33.9375 6.51655 32.3438 5.55822C31.875 5.36655 31.4063 5.17488 30.8438 5.17488Z" fill="#80DEEA"/>
<path d="M30.9375 42.7417C26.25 42.7417 19.5 36.8959 14.4375 27.7917C8.34374 17.0584 7.12499 6.61257 11.7187 3.92923C16.3125 1.2459 24.5625 7.47507 30.6562 18.2084C33.4687 23.1917 35.3437 28.3667 35.9062 32.7751C36.5625 37.4709 35.625 40.7292 33.2812 42.1667C32.5312 42.5501 31.7812 42.7417 30.9375 42.7417ZM12.6562 5.5584C9.56249 7.37923 10.125 16.3876 16.0312 26.8334C21.9375 37.2792 29.25 42.2626 32.3437 40.4417C33.9375 39.4834 34.5 36.8001 34.0312 32.9667C33.4687 28.8459 31.6875 23.9584 28.9687 19.1667C23.0625 8.7209 15.75 3.73757 12.6562 5.5584Z" fill="#80DEEA"/>
<path d="M22.5 26.8334C24.5711 26.8334 26.25 25.1172 26.25 23.0001C26.25 20.883 24.5711 19.1667 22.5 19.1667C20.4289 19.1667 18.75 20.883 18.75 23.0001C18.75 25.1172 20.4289 26.8334 22.5 26.8334Z" fill="#80DEEA"/>
<path d="M8.03237 68L5.87637 64.192H4.95237V68H2.99237V58.228H6.66037C7.41637 58.228 8.06037 58.3633 8.59237 58.634C9.12437 58.8953 9.52103 59.2547 9.78237 59.712C10.053 60.16 10.1884 60.664 10.1884 61.224C10.1884 61.868 10.0017 62.4513 9.62837 62.974C9.25503 63.4873 8.6997 63.842 7.96237 64.038L10.3004 68H8.03237ZM4.95237 62.722H6.59037C7.12237 62.722 7.51903 62.596 7.78037 62.344C8.0417 62.0827 8.17237 61.7233 8.17237 61.266C8.17237 60.818 8.0417 60.4727 7.78037 60.23C7.51903 59.978 7.12237 59.852 6.59037 59.852H4.95237V62.722ZM19.1711 63.954C19.1711 64.234 19.1525 64.486 19.1151 64.71H13.4451C13.4918 65.27 13.6878 65.7087 14.0331 66.026C14.3785 66.3433 14.8031 66.502 15.3071 66.502C16.0351 66.502 16.5531 66.1893 16.8611 65.564H18.9751C18.7511 66.3107 18.3218 66.9267 17.6871 67.412C17.0525 67.888 16.2731 68.126 15.3491 68.126C14.6025 68.126 13.9305 67.9627 13.3331 67.636C12.7451 67.3 12.2831 66.8287 11.9471 66.222C11.6205 65.6153 11.4571 64.9153 11.4571 64.122C11.4571 63.3193 11.6205 62.6147 11.9471 62.008C12.2738 61.4013 12.7311 60.9347 13.3191 60.608C13.9071 60.2813 14.5838 60.118 15.3491 60.118C16.0865 60.118 16.7445 60.2767 17.3231 60.594C17.9111 60.9113 18.3638 61.364 18.6811 61.952C19.0078 62.5307 19.1711 63.198 19.1711 63.954ZM17.1411 63.394C17.1318 62.89 16.9498 62.4887 16.5951 62.19C16.2405 61.882 15.8065 61.728 15.2931 61.728C14.8078 61.728 14.3971 61.8773 14.0611 62.176C13.7345 62.4653 13.5338 62.8713 13.4591 63.394H17.1411ZM20.0977 64.094C20.0977 63.31 20.2517 62.6147 20.5597 62.008C20.8771 61.4013 21.3017 60.9347 21.8337 60.608C22.3751 60.2813 22.9771 60.118 23.6397 60.118C24.2184 60.118 24.7224 60.2347 25.1517 60.468C25.5904 60.7013 25.9404 60.9953 26.2017 61.35V60.244H28.1757V68H26.2017V66.866C25.9497 67.23 25.5997 67.5333 25.1517 67.776C24.7131 68.0093 24.2044 68.126 23.6257 68.126C22.9724 68.126 22.3751 67.958 21.8337 67.622C21.3017 67.286 20.8771 66.8147 20.5597 66.208C20.2517 65.592 20.0977 64.8873 20.0977 64.094ZM26.2017 64.122C26.2017 63.646 26.1084 63.24 25.9217 62.904C25.7351 62.5587 25.4831 62.2973 25.1657 62.12C24.8484 61.9333 24.5077 61.84 24.1437 61.84C23.7797 61.84 23.4437 61.9287 23.1357 62.106C22.8277 62.2833 22.5757 62.5447 22.3797 62.89C22.1931 63.226 22.0997 63.6273 22.0997 64.094C22.0997 64.5607 22.1931 64.9713 22.3797 65.326C22.5757 65.6713 22.8277 65.9373 23.1357 66.124C23.4531 66.3107 23.7891 66.404 24.1437 66.404C24.5077 66.404 24.8484 66.3153 25.1657 66.138C25.4831 65.9513 25.7351 65.69 25.9217 65.354C26.1084 65.0087 26.2017 64.598 26.2017 64.122ZM29.586 64.122C29.586 63.3193 29.7494 62.6193 30.076 62.022C30.4027 61.4153 30.8554 60.9487 31.434 60.622C32.0127 60.286 32.6754 60.118 33.422 60.118C34.3834 60.118 35.1767 60.3607 35.802 60.846C36.4367 61.322 36.8614 61.994 37.076 62.862H34.962C34.85 62.526 34.6587 62.2647 34.388 62.078C34.1267 61.882 33.8 61.784 33.408 61.784C32.848 61.784 32.4047 61.9893 32.078 62.4C31.7514 62.8013 31.588 63.3753 31.588 64.122C31.588 64.8593 31.7514 65.4333 32.078 65.844C32.4047 66.2453 32.848 66.446 33.408 66.446C34.2014 66.446 34.7194 66.0913 34.962 65.382H37.076C36.8614 66.222 36.4367 66.8893 35.802 67.384C35.1674 67.8787 34.374 68.126 33.422 68.126C32.6754 68.126 32.0127 67.9627 31.434 67.636C30.8554 67.3 30.4027 66.8333 30.076 66.236C29.7494 65.6293 29.586 64.9247 29.586 64.122ZM40.7939 61.854V65.606C40.7939 65.8673 40.8546 66.0587 40.9759 66.18C41.1066 66.292 41.3212 66.348 41.6199 66.348H42.5299V68H41.2979C39.6459 68 38.8199 67.1973 38.8199 65.592V61.854H37.8959V60.244H38.8199V58.326H40.7939V60.244H42.5299V61.854H40.7939Z" fill="white"/>
</svg>
