<svg width="45" height="46" viewBox="0 0 45 46" fill="none" xmlns="http://www.w3.org/2000/svg">
<path d="M22.5 32.5834C10.4062 32.5834 0.9375 28.3667 0.9375 23.0001C0.9375 17.6334 10.4062 13.4167 22.5 13.4167C34.5938 13.4167 44.0625 17.6334 44.0625 23.0001C44.0625 28.3667 34.5938 32.5834 22.5 32.5834ZM22.5 15.3334C10.6875 15.3334 2.8125 19.2626 2.8125 23.0001C2.8125 26.7376 10.6875 30.6667 22.5 30.6667C34.3125 30.6667 42.1875 26.7376 42.1875 23.0001C42.1875 19.2626 34.3125 15.3334 22.5 15.3334Z" fill="#007FDA"/>
<path d="M14.1564 42.7415C13.2189 42.7415 12.4689 42.5499 11.7189 42.0707C7.1251 39.3874 8.34385 28.9415 14.3439 18.2082C17.1564 13.2249 20.6251 9.00821 24.0001 6.32488C27.6564 3.44988 30.9376 2.58738 33.1876 3.92905C35.5314 5.27072 36.3751 8.62488 35.8126 13.3207C35.2501 17.729 33.3751 22.904 30.5626 27.8874C27.7501 32.8707 24.2814 37.0874 20.9064 39.7707C18.4689 41.6874 16.1251 42.7415 14.1564 42.7415ZM30.8439 5.17488C29.3439 5.17488 27.3751 6.03738 25.2189 7.76238C22.0314 10.3499 18.7501 14.3749 16.0314 19.1665C10.1251 29.6124 9.5626 38.6207 12.6564 40.4415C14.2501 41.3999 16.8751 40.5374 19.7814 38.2374C22.9689 35.6499 26.2501 31.6249 28.9689 26.8332C31.6876 22.0415 33.4688 17.154 34.0313 13.0332C34.5001 9.19988 33.9376 6.51655 32.3439 5.55822C31.8751 5.36655 31.4064 5.17488 30.8439 5.17488Z" fill="#007FDA"/>
<path d="M30.9375 42.7417C26.25 42.7417 19.5 36.8959 14.4375 27.7917C8.34377 17.0584 7.12502 6.61257 11.7188 3.92923C16.3125 1.2459 24.5625 7.47507 30.6563 18.2084C33.4688 23.1917 35.3438 28.3667 35.9063 32.7751C36.5625 37.4709 35.625 40.7292 33.2813 42.1667C32.5313 42.5501 31.7813 42.7417 30.9375 42.7417ZM12.6563 5.5584C9.56252 7.37923 10.125 16.3876 16.0313 26.8334C21.9375 37.2792 29.25 42.2626 32.3438 40.4417C33.9375 39.4834 34.5 36.8001 34.0313 32.9667C33.4688 28.8459 31.6875 23.9584 28.9688 19.1667C23.0625 8.7209 15.75 3.73757 12.6563 5.5584Z" fill="#007FDA"/>
<path d="M22.5 26.8334C24.5711 26.8334 26.25 25.1172 26.25 23.0001C26.25 20.883 24.5711 19.1667 22.5 19.1667C20.4289 19.1667 18.75 20.883 18.75 23.0001C18.75 25.1172 20.4289 26.8334 22.5 26.8334Z" fill="#007FDA"/>
</svg>
